<svg xmlns="http://www.w3.org/2000/svg" width="299.967" height="94" viewBox="0 0 299.967 94">
  <g id="builders-vertical-sea" transform="translate(-167.29 -173.9)">
    <g id="Groupe_7" data-name="Groupe 7" transform="translate(167.29 173.9)">
      <path id="Tracé_41" data-name="Tracé 41" d="M221.527,173.9c-6.04.03-17.885,4.878-22.084,8.93,1.2-.543,2.637-1.215,4.088-1.852,4.188-1.834,8.411-3.592,13.13-3.215,3.781.307,6.258,2.56,6.447,6.341a23.173,23.173,0,0,1-.743,7.267,65.315,65.315,0,0,1-8.435,17.879c-.36.56-.726,1.115-1.091,1.669-.82,1.227-1.663,2.442-2.519,3.645h0c-.749,1.05-1.516,2.1-2.283,3.138-.106.147-.218.289-.324.431-.649.867-1.321,1.728-2.017,2.607-.608.767-1.227,1.551-1.87,2.371L167.29,187.1v23.235l28.644,35.757c1.51-1.8,2.943-3.48,4.335-5.144.649-.779,1.292-1.551,1.917-2.336.513-.637,1.015-1.274,1.522-1.911,1.516-1.905,3.02-3.816,4.5-5.751q2.486-3.238,4.878-6.547,1.849-2.557,3.616-5.173,1.451-2.141,2.843-4.318c.2-.313.389-.631.584-.944a139.117,139.117,0,0,0,7.621-13.72c2.383-4.967,4.436-10.092,4.459-15.737C232.233,177.758,228.275,173.87,221.527,173.9Z" transform="translate(-167.29 -173.9)" fill="#007095"/>
    </g>
    <g id="Groupe_9" data-name="Groupe 9" transform="translate(217.717 229.972)">
      <g id="Groupe_8" data-name="Groupe 8" transform="translate(0 0)">
        <path id="Tracé_42" data-name="Tracé 42" d="M261.622,278.975a3.348,3.348,0,0,1,.755,2.177,3.964,3.964,0,0,1-.708,2.413,4.163,4.163,0,0,1-1.852,1.41,6.822,6.822,0,0,1-2.513.454H252.78V270.21h3.934a5.972,5.972,0,0,1,3.622.956,3.359,3.359,0,0,1,1.286,2.873,3.965,3.965,0,0,1-.537,2.094,3.7,3.7,0,0,1-1.528,1.4A4.957,4.957,0,0,1,261.622,278.975Zm-6.8-2.112h2.318a2.27,2.27,0,0,0,1.781-.672,2.5,2.5,0,0,0,.6-1.728,2.093,2.093,0,0,0-.714-1.728,3.151,3.151,0,0,0-2-.566h-1.982v4.7Zm4.589,6.07a2,2,0,0,0,.861-1.758,1.919,1.919,0,0,0-.938-1.77,4.3,4.3,0,0,0-2.265-.566h-2.253v4.7h2.4A3.762,3.762,0,0,0,259.41,282.933Z" transform="translate(-252.78 -269.473)" fill="#00304e"/>
        <path id="Tracé_43" data-name="Tracé 43" d="M278.14,281.851a3.619,3.619,0,0,0,1.315,1.286,3.684,3.684,0,0,0,1.84.472,3.879,3.879,0,0,0,1.905-.466,3.424,3.424,0,0,0,1.339-1.286,3.524,3.524,0,0,0,.484-1.834V270.19h2v9.892a5.415,5.415,0,0,1-.761,2.873,5.135,5.135,0,0,1-2.065,1.935,6.459,6.459,0,0,1-5.787,0,5.145,5.145,0,0,1-2.053-1.935,5.477,5.477,0,0,1-.749-2.873V270.19h2.041v9.833A3.517,3.517,0,0,0,278.14,281.851Z" transform="translate(-262.143 -269.464)" fill="#00304e"/>
        <path id="Tracé_44" data-name="Tracé 44" d="M305.171,270.21v15.218H303.13V270.21Z" transform="translate(-273.431 -269.473)" fill="#00304e"/>
        <path id="Tracé_45" data-name="Tracé 45" d="M317.127,270.21v13.242h7.745v1.976H315.08V270.21h2.047Z" transform="translate(-278.332 -269.473)" fill="#00304e"/>
        <path id="Tracé_46" data-name="Tracé 46" d="M338.36,270.21h4.17a9,9,0,0,1,4.707,1.127,6.774,6.774,0,0,1,2.713,2.9,8.611,8.611,0,0,1,.855,3.757,7.327,7.327,0,0,1-1.032,3.9,7.023,7.023,0,0,1-2.761,2.607,7.837,7.837,0,0,1-3.746.914H338.36Zm4.5,13.242a6.635,6.635,0,0,0,3.008-.661,4.929,4.929,0,0,0,2.076-1.929,6.435,6.435,0,0,0-.03-6.081,5.13,5.13,0,0,0-2.07-1.947,6.021,6.021,0,0,0-2.79-.661H340.4v11.284h2.46Z" transform="translate(-287.88 -269.473)" fill="#00304e"/>
        <path id="Tracé_47" data-name="Tracé 47" d="M376.232,270.21v1.958h-7.851v4.63h7.008v1.958h-7.008v4.7h8.146v1.976H366.34V270.21h9.892Z" transform="translate(-299.356 -269.473)" fill="#00304e"/>
        <path id="Tracé_48" data-name="Tracé 48" d="M399.092,285.424l-3.58-5.621c-.112.012-.283.018-.507.018h-2.253v5.6H390.71V270.2h4.064a6.712,6.712,0,0,1,2.778.549,4.391,4.391,0,0,1,1.917,1.61,4.6,4.6,0,0,1,.7,2.56,5.485,5.485,0,0,1-.619,2.589,4.043,4.043,0,0,1-1.905,1.787l3.828,6.129h-2.377Zm-1.758-8.441A2.99,2.99,0,0,0,398.06,275a3.072,3.072,0,0,0-.307-1.327,2.619,2.619,0,0,0-.967-1.085,3,3,0,0,0-1.675-.431h-2.359v5.686h2.212A2.935,2.935,0,0,0,397.334,276.983Z" transform="translate(-309.351 -269.469)" fill="#00304e"/>
        <path id="Tracé_49" data-name="Tracé 49" d="M420.651,272.148a6.2,6.2,0,0,0-1.746-.277,3.165,3.165,0,0,0-1.97.56,1.892,1.892,0,0,0,.13,3.073,11.209,11.209,0,0,0,2.43,1.192,10.874,10.874,0,0,1,1.988.914,4.038,4.038,0,0,1,1.345,1.368,4.269,4.269,0,0,1-1.817,5.993,5.815,5.815,0,0,1-2.643.566,8.238,8.238,0,0,1-2.713-.454,9.08,9.08,0,0,1-2.295-1.15l.9-1.622a7.41,7.41,0,0,0,1.876,1,5.9,5.9,0,0,0,2.041.413,3.675,3.675,0,0,0,2.135-.631,2.117,2.117,0,0,0,.914-1.876,2.045,2.045,0,0,0-.767-1.675,8.394,8.394,0,0,0-2.159-1.168,16.961,16.961,0,0,1-2.135-.95,4.492,4.492,0,0,1-1.463-1.274,3.268,3.268,0,0,1-.613-2.029,3.691,3.691,0,0,1,1.25-2.9,4.976,4.976,0,0,1,3.25-1.168,8.929,8.929,0,0,1,4.565,1.221l-.779,1.581A8.369,8.369,0,0,0,420.651,272.148Z" transform="translate(-318.64 -269.411)" fill="#00304e"/>
        <path id="Tracé_50" data-name="Tracé 50" d="M458.438,284.916l-1.262-1.681a4.78,4.78,0,0,1-1.781,1.38,5.9,5.9,0,0,1-2.513.513,5.513,5.513,0,0,1-2.578-.59,4.585,4.585,0,0,1-1.8-1.61,4.179,4.179,0,0,1-.655-2.306,3.838,3.838,0,0,1,.537-1.988,5.1,5.1,0,0,1,1.451-1.569,5.938,5.938,0,0,1,1.988-.926l-.672-.885a5.211,5.211,0,0,1-1.074-2.82,3.42,3.42,0,0,1,1.758-2.991,3.939,3.939,0,0,1,1.988-.484,5.018,5.018,0,0,1,2.159.466,5.315,5.315,0,0,1,1.675,1.18l-1.009,1.368a4.075,4.075,0,0,0-2.507-1.286,1.9,1.9,0,0,0-1.422.549,1.842,1.842,0,0,0-.537,1.345,3.445,3.445,0,0,0,.7,1.811l4.041,5.368,1.451-3.787h1.893l-2.129,5.409,2.672,3.539h-2.371Zm-3.527-2.029a3.1,3.1,0,0,0,1.168-1.085l-3.156-4.212a3.25,3.25,0,0,0-2.536,1.5,2.7,2.7,0,0,0-.413,1.439,2.483,2.483,0,0,0,.914,1.976,3.346,3.346,0,0,0,2.241.779A3.582,3.582,0,0,0,454.911,282.887Z" transform="translate(-332.786 -268.96)" fill="#00304e"/>
        <path id="Tracé_51" data-name="Tracé 51" d="M496.829,271.449a4.4,4.4,0,0,1,1.4,3.474,5.677,5.677,0,0,1-.513,2.4,4.119,4.119,0,0,1-1.663,1.811,5.485,5.485,0,0,1-2.9.7H490.9v5.6H488.86V270.21h4.082A5.674,5.674,0,0,1,496.829,271.449Zm-1.9,5.94a2.657,2.657,0,0,0,.979-1.127,3.207,3.207,0,0,0,.295-1.3,2.93,2.93,0,0,0-.714-1.947,2.757,2.757,0,0,0-2.23-.849H490.9v5.686h2.253A3.171,3.171,0,0,0,494.93,277.389Z" transform="translate(-349.606 -269.473)" fill="#00304e"/>
        <path id="Tracé_52" data-name="Tracé 52" d="M515.587,280.99h-5.851l-1.622,4H506.09l6.654-15.849h.124l6.654,15.849h-2.359Zm-.7-1.77-2.171-5.556-2.253,5.556Z" transform="translate(-356.673 -269.034)" fill="#00304e"/>
        <path id="Tracé_53" data-name="Tracé 53" d="M543.132,285.424l-3.58-5.621c-.112.012-.283.018-.507.018h-2.253v5.6H534.75V270.2h4.064a6.712,6.712,0,0,1,2.778.549,4.391,4.391,0,0,1,1.917,1.61,4.6,4.6,0,0,1,.7,2.56,5.484,5.484,0,0,1-.619,2.589,4.042,4.042,0,0,1-1.905,1.787l3.828,6.129h-2.377Zm-1.758-8.441A2.99,2.99,0,0,0,542.1,275a3.071,3.071,0,0,0-.307-1.327,2.619,2.619,0,0,0-.967-1.085,3,3,0,0,0-1.675-.431h-2.359v5.686H539A2.927,2.927,0,0,0,541.374,276.983Z" transform="translate(-368.428 -269.469)" fill="#00304e"/>
        <path id="Tracé_54" data-name="Tracé 54" d="M567.234,270.21v1.958h-4.082v13.26h-2.041v-13.26H557.13V270.21Z" transform="translate(-377.607 -269.473)" fill="#00304e"/>
        <path id="Tracé_55" data-name="Tracé 55" d="M594.126,269.886v15.726h-.065l-11.178-11.349.041,10.842H580.86V269.42h.106l11.16,11.473-.041-11.013h2.041Z" transform="translate(-387.339 -269.149)" fill="#00304e"/>
        <path id="Tracé_56" data-name="Tracé 56" d="M621.738,270.21v1.958h-7.857v4.63h7.008v1.958h-7.008v4.7h8.146v1.976H611.84V270.21h9.9Z" transform="translate(-400.045 -269.473)" fill="#00304e"/>
        <path id="Tracé_57" data-name="Tracé 57" d="M644.592,285.424l-3.58-5.621c-.112.012-.283.018-.507.018h-2.253v5.6H636.21V270.2h4.064a6.712,6.712,0,0,1,2.778.549,4.391,4.391,0,0,1,1.917,1.61,4.6,4.6,0,0,1,.7,2.56,5.485,5.485,0,0,1-.619,2.589,4.043,4.043,0,0,1-1.905,1.787l3.828,6.129h-2.377Zm-1.758-8.441A2.991,2.991,0,0,0,643.56,275a3.071,3.071,0,0,0-.307-1.327,2.619,2.619,0,0,0-.967-1.085,3,3,0,0,0-1.675-.431h-2.359v5.686h2.212A2.927,2.927,0,0,0,642.834,276.983Z" transform="translate(-410.041 -269.469)" fill="#00304e"/>
        <path id="Tracé_58" data-name="Tracé 58" d="M666.161,272.148a6.2,6.2,0,0,0-1.746-.277,3.165,3.165,0,0,0-1.97.56,1.892,1.892,0,0,0,.13,3.073A11.21,11.21,0,0,0,665,276.7a10.871,10.871,0,0,1,1.988.914,4.038,4.038,0,0,1,1.345,1.368,4.269,4.269,0,0,1-1.817,5.993,5.815,5.815,0,0,1-2.643.566,8.238,8.238,0,0,1-2.713-.454,9.08,9.08,0,0,1-2.295-1.15l.9-1.622a7.411,7.411,0,0,0,1.876,1,5.9,5.9,0,0,0,2.041.413,3.675,3.675,0,0,0,2.135-.631,2.117,2.117,0,0,0,.914-1.876,2.045,2.045,0,0,0-.767-1.675,8.393,8.393,0,0,0-2.159-1.168,16.963,16.963,0,0,1-2.135-.95,4.492,4.492,0,0,1-1.463-1.274,3.268,3.268,0,0,1-.613-2.029,3.691,3.691,0,0,1,1.25-2.9,4.976,4.976,0,0,1,3.25-1.168,8.929,8.929,0,0,1,4.565,1.221l-.779,1.581A8.653,8.653,0,0,0,666.161,272.148Z" transform="translate(-419.334 -269.411)" fill="#00304e"/>
      </g>
    </g>
    <g id="Groupe_11" data-name="Groupe 11" transform="translate(218.018 258.792)">
      <g id="Groupe_10" data-name="Groupe 10">
        <path id="Tracé_59" data-name="Tracé 59" d="M259.177,326.553a5.055,5.055,0,0,1-1.51.254,4.773,4.773,0,0,1-2.306-.537,3.811,3.811,0,0,1-1.534-1.475,4.143,4.143,0,0,1-.537-2.106,4.67,4.67,0,0,1,.578-2.365,3.946,3.946,0,0,1,1.563-1.534,4.46,4.46,0,0,1,2.153-.531,5.394,5.394,0,0,1,1.333.165,4.684,4.684,0,0,1,1.121.448l-.372,1.032a4.262,4.262,0,0,0-.932-.366,3.721,3.721,0,0,0-1.015-.153,3.619,3.619,0,0,0-1.722.4,2.738,2.738,0,0,0-1.15,1.121,3.438,3.438,0,0,0-.407,1.7,3.172,3.172,0,0,0,.407,1.61,2.759,2.759,0,0,0,1.144,1.091,3.582,3.582,0,0,0,1.693.389,4.085,4.085,0,0,0,.855-.088,2.456,2.456,0,0,0,.7-.248V323.7h-1.669v-1.074h2.8v3.38A4.066,4.066,0,0,1,259.177,326.553Z" transform="translate(-253.29 -318)" fill="#00ad97"/>
        <path id="Tracé_60" data-name="Tracé 60" d="M275.9,326.77l-1.97-3.091c-.065.006-.153.012-.277.012h-1.239v3.079H271.29V318.4h2.236a3.7,3.7,0,0,1,1.528.3,2.428,2.428,0,0,1,1.056.885,2.526,2.526,0,0,1,.383,1.4,3,3,0,0,1-.342,1.427,2.245,2.245,0,0,1-1.05.985l2.106,3.368H275.9Zm-.967-4.642a1.652,1.652,0,0,0,.4-1.091,1.722,1.722,0,0,0-.171-.731,1.426,1.426,0,0,0-.531-.6,1.641,1.641,0,0,0-.92-.236h-1.3V322.6h1.215A1.589,1.589,0,0,0,274.929,322.128Z" transform="translate(-260.673 -318.058)" fill="#00ad97"/>
        <path id="Tracé_61" data-name="Tracé 61" d="M285.978,320.4a4.362,4.362,0,0,1,1.557-1.569,4.185,4.185,0,0,1,4.265,0,4.443,4.443,0,0,1,1.569,1.569,4.1,4.1,0,0,1,.584,2.129,4.165,4.165,0,0,1-.578,2.141,4.273,4.273,0,0,1-1.569,1.557,4.255,4.255,0,0,1-6.406-3.7A4.138,4.138,0,0,1,285.978,320.4Zm1,3.728a3.147,3.147,0,0,0,1.138,1.156,3.069,3.069,0,0,0,1.581.425,3.052,3.052,0,0,0,2.69-1.581,3.2,3.2,0,0,0,.413-1.6,3.247,3.247,0,0,0-.419-1.61,3.078,3.078,0,0,0-1.133-1.168,3.032,3.032,0,0,0-1.575-.425,2.935,2.935,0,0,0-1.575.436,3.163,3.163,0,0,0-1.127,1.174,3.241,3.241,0,0,0-.413,1.61A3.159,3.159,0,0,0,286.975,324.131Z" transform="translate(-266.46 -317.996)" fill="#00ad97"/>
        <path id="Tracé_62" data-name="Tracé 62" d="M306.676,324.812a1.989,1.989,0,0,0,.726.708,2.044,2.044,0,0,0,1.015.26,2.144,2.144,0,0,0,1.05-.254,1.932,1.932,0,0,0,.737-.708,1.952,1.952,0,0,0,.265-1.009V318.4h1.1v5.444a3,3,0,0,1-.419,1.581,2.86,2.86,0,0,1-1.133,1.068,3.548,3.548,0,0,1-3.185,0,2.806,2.806,0,0,1-1.127-1.068,3,3,0,0,1-.413-1.581V318.4h1.121v5.409A1.931,1.931,0,0,0,306.676,324.812Z" transform="translate(-274.617 -318.058)" fill="#00ad97"/>
        <path id="Tracé_63" data-name="Tracé 63" d="M326.577,319.084a2.42,2.42,0,0,1,.773,1.911,3.127,3.127,0,0,1-.283,1.321,2.251,2.251,0,0,1-.914,1,3.032,3.032,0,0,1-1.593.383h-1.239v3.079H322.2V318.4h2.247A3.12,3.12,0,0,1,326.577,319.084Zm-1.044,3.268a1.446,1.446,0,0,0,.537-.619,1.791,1.791,0,0,0,.165-.714,1.612,1.612,0,0,0-.4-1.074,1.517,1.517,0,0,0-1.227-.466h-1.3v3.126h1.239A1.76,1.76,0,0,0,325.533,322.352Z" transform="translate(-281.553 -318.058)" fill="#00ad97"/>
        <path id="Tracé_64" data-name="Tracé 64" d="M341.669,318.4v1.079h-4.318v2.548h3.858V323.1h-3.858v2.584h4.483v1.091h-5.6V318.4Z" transform="translate(-287.307 -318.058)" fill="#00ad97"/>
        <path id="Tracé_65" data-name="Tracé 65" d="M366.105,318.4l-3.693,8.765L358.72,318.4h1.333l2.407,6.034,2.324-6.034Z" transform="translate(-296.531 -318.058)" fill="#00ad97"/>
        <path id="Tracé_66" data-name="Tracé 66" d="M381.859,318.4v1.079h-4.318v2.548H381.4V323.1h-3.858v2.584h4.483v1.091h-5.6V318.4Z" transform="translate(-303.791 -318.058)" fill="#00ad97"/>
        <path id="Tracé_67" data-name="Tracé 67" d="M396.2,326.77l-1.97-3.091c-.065.006-.153.012-.277.012h-1.239v3.079H391.59V318.4h2.236a3.7,3.7,0,0,1,1.528.3,2.428,2.428,0,0,1,1.056.885,2.478,2.478,0,0,1,.383,1.4,3,3,0,0,1-.342,1.427,2.245,2.245,0,0,1-1.05.985l2.106,3.368H396.2Zm-.961-4.642a1.652,1.652,0,0,0,.4-1.091,1.722,1.722,0,0,0-.171-.731,1.426,1.426,0,0,0-.531-.6,1.641,1.641,0,0,0-.92-.236h-1.3V322.6h1.215A1.6,1.6,0,0,0,395.235,322.128Z" transform="translate(-310.013 -318.058)" fill="#00ad97"/>
        <path id="Tracé_68" data-name="Tracé 68" d="M411.226,318.4v1.079h-2.247v7.3h-1.121v-7.3H405.67V318.4Z" transform="translate(-315.787 -318.058)" fill="#00ad97"/>
        <path id="Tracé_69" data-name="Tracé 69" d="M421.611,318.4v8.37H420.49V318.4Z" transform="translate(-321.866 -318.058)" fill="#00ad97"/>
        <path id="Tracé_70" data-name="Tracé 70" d="M433.585,326.579a3.842,3.842,0,0,1-1.351.224,4.453,4.453,0,0,1-2.265-.566,3.9,3.9,0,0,1-1.5-1.528,4.3,4.3,0,0,1-.525-2.118,4.646,4.646,0,0,1,.531-2.23,3.932,3.932,0,0,1,1.475-1.551,4.121,4.121,0,0,1,2.135-.56,4.575,4.575,0,0,1,2.418.667l-.454,1.056a3.454,3.454,0,0,0-1.935-.649,2.8,2.8,0,0,0-1.5.425,3.1,3.1,0,0,0-1.1,1.162,3.216,3.216,0,0,0-.413,1.616,3.491,3.491,0,0,0,.378,1.634,2.751,2.751,0,0,0,1.079,1.138,3.094,3.094,0,0,0,1.616.413,3.132,3.132,0,0,0,1.958-.637l.478,1.009A4.9,4.9,0,0,1,433.585,326.579Z" transform="translate(-324.921 -317.996)" fill="#00ad97"/>
        <path id="Tracé_71" data-name="Tracé 71" d="M448.606,324.338h-3.221l-.891,2.2H443.38l3.657-8.718h.071l3.657,8.718h-1.3Zm-.378-.973-1.192-3.055-1.239,3.055Z" transform="translate(-331.254 -317.82)" fill="#00ad97"/>
        <path id="Tracé_72" data-name="Tracé 72" d="M462.037,318.4v7.285H466.3v1.091H460.91V318.4Z" transform="translate(-338.444 -318.058)" fill="#00ad97"/>
        <path id="Tracé_73" data-name="Tracé 73" d="M486.961,319.47a3.407,3.407,0,0,0-.961-.147,1.744,1.744,0,0,0-1.085.307,1,1,0,0,0-.4.838.992.992,0,0,0,.466.849,6.284,6.284,0,0,0,1.339.655,6.138,6.138,0,0,1,1.091.5,2.276,2.276,0,0,1,.743.755,2.31,2.31,0,0,1,.295,1.221,2.255,2.255,0,0,1-.336,1.215,2.287,2.287,0,0,1-.956.855,3.207,3.207,0,0,1-1.451.313,4.527,4.527,0,0,1-1.492-.248,5.156,5.156,0,0,1-1.262-.631l.5-.891a3.879,3.879,0,0,0,1.032.549,3.261,3.261,0,0,0,1.121.224,2.026,2.026,0,0,0,1.174-.348,1.164,1.164,0,0,0,.5-1.032,1.125,1.125,0,0,0-.425-.92,4.545,4.545,0,0,0-1.186-.643,9.246,9.246,0,0,1-1.174-.519,2.458,2.458,0,0,1-.8-.7,1.79,1.79,0,0,1-.336-1.115,2.026,2.026,0,0,1,.69-1.593,2.736,2.736,0,0,1,1.787-.643,4.921,4.921,0,0,1,2.513.672l-.431.867A4.713,4.713,0,0,0,486.961,319.47Z" transform="translate(-347.483 -318.025)" fill="#00ad97"/>
        <path id="Tracé_74" data-name="Tracé 74" d="M503.268,318.4v1.079h-4.318v2.548h3.858V323.1h-3.858v2.584h4.483v1.091h-5.6V318.4Z" transform="translate(-353.586 -318.058)" fill="#00ad97"/>
        <path id="Tracé_75" data-name="Tracé 75" d="M516.8,324.338h-3.221l-.891,2.2H511.57l3.657-8.718h.071l3.657,8.718h-1.3Zm-.383-.973-1.192-3.055-1.239,3.055Z" transform="translate(-359.221 -317.82)" fill="#00ad97"/>
      </g>
    </g>
  </g>
</svg>
