<?xml version="1.0" encoding="UTF-8"?>
<svg id="Calque_1" data-name="Calque 1" xmlns="http://www.w3.org/2000/svg" version="1.1" xmlns:xlink="http://www.w3.org/1999/xlink" viewBox="0 0 485.11 200">
  <defs>
    <style>
      .cls-1 {
        fill: url(#Dégradé_sans_nom_23-3);
      }

      .cls-1, .cls-2, .cls-3, .cls-4, .cls-5, .cls-6, .cls-7, .cls-8, .cls-9, .cls-10, .cls-11, .cls-12, .cls-13, .cls-14, .cls-15, .cls-16, .cls-17, .cls-18, .cls-19, .cls-20, .cls-21, .cls-22, .cls-23, .cls-24, .cls-25, .cls-26, .cls-27 {
        stroke-width: 0px;
      }

      .cls-2 {
        fill: url(#Dégradé_sans_nom_23-2);
      }

      .cls-28 {
        clip-path: url(#clippath-20);
      }

      .cls-29 {
        clip-path: url(#clippath-11);
      }

      .cls-30 {
        clip-path: url(#clippath-16);
      }

      .cls-3 {
        fill: url(#Dégradé_sans_nom_23-11);
      }

      .cls-4 {
        fill: url(#Dégradé_sans_nom_23-20);
      }

      .cls-5 {
        fill: url(#Dégradé_sans_nom_23-12);
      }

      .cls-6 {
        fill: url(#Dégradé_sans_nom_23-15);
      }

      .cls-31 {
        clip-path: url(#clippath-2);
      }

      .cls-32 {
        clip-path: url(#clippath-13);
      }

      .cls-7 {
        fill: #0eb7d4;
      }

      .cls-33 {
        clip-path: url(#clippath-15);
      }

      .cls-8 {
        fill: url(#Dégradé_sans_nom_23-19);
      }

      .cls-34 {
        clip-path: url(#clippath-6);
      }

      .cls-9 {
        fill: url(#Dégradé_sans_nom_23-13);
      }

      .cls-10 {
        fill: url(#Dégradé_sans_nom_23-4);
      }

      .cls-11 {
        fill: url(#Dégradé_sans_nom_23-21);
      }

      .cls-12, .cls-35 {
        fill: none;
      }

      .cls-36 {
        clip-path: url(#clippath-7);
      }

      .cls-37 {
        clip-path: url(#clippath-21);
      }

      .cls-13 {
        fill: url(#Dégradé_sans_nom_23);
      }

      .cls-38 {
        clip-path: url(#clippath-1);
      }

      .cls-39 {
        clip-path: url(#clippath-4);
      }

      .cls-14 {
        fill: url(#Dégradé_sans_nom_23-10);
      }

      .cls-15 {
        fill: #00364a;
      }

      .cls-40 {
        clip-path: url(#clippath-12);
      }

      .cls-16 {
        fill: url(#Dégradé_sans_nom_23-9);
      }

      .cls-17 {
        fill: url(#Dégradé_sans_nom_23-7);
      }

      .cls-18 {
        fill: url(#Dégradé_sans_nom_23-18);
      }

      .cls-19 {
        fill: url(#Dégradé_sans_nom_23-5);
      }

      .cls-20 {
        fill: #00b7d4;
      }

      .cls-41 {
        clip-path: url(#clippath-22);
      }

      .cls-42 {
        clip-path: url(#clippath-9);
      }

      .cls-43 {
        clip-path: url(#clippath);
      }

      .cls-44 {
        clip-path: url(#clippath-19);
      }

      .cls-21 {
        fill: url(#Dégradé_sans_nom_23-23);
      }

      .cls-45 {
        clip-path: url(#clippath-3);
      }

      .cls-22 {
        fill: url(#Dégradé_sans_nom_23-17);
      }

      .cls-46 {
        clip-path: url(#clippath-8);
      }

      .cls-23 {
        fill: url(#Dégradé_sans_nom_23-6);
      }

      .cls-47 {
        clip-path: url(#clippath-18);
      }

      .cls-48 {
        clip-path: url(#clippath-14);
      }

      .cls-49 {
        clip-path: url(#clippath-17);
      }

      .cls-35 {
        stroke: #00364a;
        stroke-miterlimit: 10;
        stroke-width: .79px;
      }

      .cls-50 {
        clip-path: url(#clippath-5);
      }

      .cls-24 {
        fill: url(#Dégradé_sans_nom_23-14);
      }

      .cls-51 {
        clip-path: url(#clippath-10);
      }

      .cls-25 {
        fill: url(#Dégradé_sans_nom_23-16);
      }

      .cls-26 {
        fill: url(#Dégradé_sans_nom_23-8);
      }

      .cls-27 {
        fill: url(#Dégradé_sans_nom_23-22);
      }
    </style>
    <clipPath id="clippath">
      <path class="cls-12" d="M27.35,11.8c-3.04,0-5.7.44-7.98,1.31-2.28.87-4.25,2.09-5.92,3.64-1.89,1.74-3.37,3.8-4.45,6.17-1.08,2.37-1.61,4.93-1.61,7.67,0,2.48.43,4.8,1.28,6.95.85,2.15,2.04,4.06,3.56,5.73,1.74,1.89,3.85,3.38,6.34,4.48,2.48,1.09,5.41,1.64,8.79,1.64h19.68v-9.9h-19.68c-1.78,0-3.28-.26-4.5-.78-1.22-.52-2.24-1.22-3.06-2.11-.74-.78-1.32-1.68-1.72-2.7-.41-1.02-.61-2.11-.61-3.25,0-1.26.25-2.45.75-3.56.5-1.11,1.18-2.07,2.03-2.89.81-.74,1.78-1.33,2.89-1.78,1.11-.45,2.52-.67,4.23-.67h19.68v-9.95h-19.68Z"/>
    </clipPath>
    <linearGradient id="Dégradé_sans_nom_23" data-name="Dégradé sans nom 23" x1="-332.96" y1="556.11" x2="-331.2" y2="556.11" gradientTransform="translate(-150669.81 90234.93) rotate(90) scale(270.99 -270.99)" gradientUnits="userSpaceOnUse">
      <stop offset="0" stop-color="#115d85"/>
      <stop offset="1" stop-color="#05374a"/>
    </linearGradient>
    <clipPath id="clippath-1">
      <polygon class="cls-12" points="76.72 16.07 76.72 26.6 59.41 26.6 59.41 16.07 51.59 16.07 51.59 16.08 51.59 45.11 59.41 45.11 59.41 33.9 76.72 33.9 76.72 45.11 84.53 45.11 84.54 45.11 84.54 16.07 84.53 16.07 76.72 16.07"/>
    </clipPath>
    <linearGradient id="Dégradé_sans_nom_23-2" data-name="Dégradé sans nom 23" x1="-332.96" y1="556.12" x2="-331.2" y2="556.12" gradientTransform="translate(-150632.09 90194.27) rotate(90) scale(270.99 -270.99)" xlink:href="#Dégradé_sans_nom_23"/>
    <clipPath id="clippath-2">
      <path class="cls-12" d="M105.63,23.81c.14-.34.33-.58.56-.71.23-.13.47-.19.73-.19.29,0,.54.07.77.21.23.14.41.37.56.69l4.47,10.4h-11.51l4.43-10.4ZM101.71,16.76c-1.34.89-2.43,2.23-3.26,4.04l-10.4,23.03c-.11.23-.21.44-.28.64-.07.2-.14.41-.19.64h8.98c.03-.17.07-.34.13-.51.06-.17.11-.34.17-.52l1.5-3.48h17.18l1.55,3.52c.06.14.11.29.17.45.06.16.12.34.17.54h8.76c-.06-.23-.12-.44-.19-.64-.07-.2-.17-.41-.28-.64l-10.48-23.03c-.83-1.8-1.93-3.15-3.29-4.04-1.36-.89-3.06-1.33-5.09-1.33s-3.81.44-5.16,1.33"/>
    </clipPath>
    <linearGradient id="Dégradé_sans_nom_23-3" data-name="Dégradé sans nom 23" x1="-332.96" y1="556.13" x2="-331.2" y2="556.13" gradientTransform="translate(-150596.86 90155.8) rotate(90) scale(270.99 -270.99)" xlink:href="#Dégradé_sans_nom_23"/>
    <clipPath id="clippath-3">
      <path class="cls-12" d="M133.2,15.79c-.83.24-1.55.64-2.15,1.18-.6.54-1.07,1.24-1.4,2.11-.33.86-.49,1.9-.49,3.13v22.9h7.65v-19.67c0-.26.07-.46.21-.6.14-.14.31-.22.52-.22.23,0,.46.13.69.39l15.94,18.43c.69.8,1.5,1.38,2.43,1.74.93.36,2.01.54,3.24.54.72,0,1.4-.12,2.06-.37.66-.24,1.24-.62,1.74-1.12.5-.5.9-1.14,1.2-1.93.3-.79.45-1.73.45-2.81v-23.41h-7.6v18.77c0,.51-.2.77-.6.77-.14,0-.27-.02-.39-.07-.11-.04-.23-.14-.34-.28l-14.17-16.97c-.92-1.06-1.85-1.8-2.79-2.24-.94-.43-2.1-.64-3.48-.64-.97,0-1.88.12-2.71.37"/>
    </clipPath>
    <linearGradient id="Dégradé_sans_nom_23-4" data-name="Dégradé sans nom 23" x1="-332.96" y1="556.14" x2="-331.2" y2="556.14" gradientTransform="translate(-150558.56 90116.2) rotate(90) scale(270.99 -270.99)" xlink:href="#Dégradé_sans_nom_23"/>
    <clipPath id="clippath-4">
      <polygon class="cls-12" points="168.3 16.07 168.3 23.76 181.05 23.76 181.05 45.11 188.87 45.11 188.87 23.76 201.59 23.76 201.59 16.07 201.58 16.07 168.3 16.07"/>
    </clipPath>
    <linearGradient id="Dégradé_sans_nom_23-5" data-name="Dégradé sans nom 23" x1="-332.96" y1="556.15" x2="-331.2" y2="556.15" gradientTransform="translate(-150523.45 90079.42) rotate(90) scale(270.99 -270.99)" xlink:href="#Dégradé_sans_nom_23"/>
    <clipPath id="clippath-5">
      <polygon class="cls-12" points="204.68 16.07 204.68 16.08 204.68 45.11 212.49 45.11 212.49 16.07 212.49 16.07 204.68 16.07"/>
    </clipPath>
    <linearGradient id="Dégradé_sans_nom_23-6" data-name="Dégradé sans nom 23" x1="-332.96" y1="556.15" x2="-331.2" y2="556.15" gradientTransform="translate(-150504.25 90057.16) rotate(90) scale(270.99 -270.99)" xlink:href="#Dégradé_sans_nom_23"/>
    <clipPath id="clippath-6">
      <path class="cls-12" d="M220.91,16.07c-2.75,0-4.12,1.3-4.12,3.91v21.09c0,2.69,1.36,4.04,4.08,4.04h26.46v-7.43h-22.08c-.46,0-.69-.26-.69-.77v-3.52h22.64v-5.58h-22.64v-3.31c0-.49.23-.73.69-.73h22.08v-7.69h-26.42Z"/>
    </clipPath>
    <linearGradient id="Dégradé_sans_nom_23-7" data-name="Dégradé sans nom 23" x1="-332.96" y1="556.16" x2="-331.2" y2="556.16" gradientTransform="translate(-150478.41 90032.05) rotate(90) scale(270.98 -270.98)" xlink:href="#Dégradé_sans_nom_23"/>
    <clipPath id="clippath-7">
      <path class="cls-12" d="M258.76,23.98c0-.43.21-.64.64-.64h13.1c.94,0,1.65.26,2.11.77.43.43.64.97.64,1.63,0,.54-.19,1.05-.56,1.5-.23.29-.51.51-.86.69-.35.17-.79.26-1.33.26h-13.75v-4.21ZM252.91,16.07c-1.29,0-1.93.6-1.93,1.81v27.23h7.77v-10.31h13.53c1.15,0,1.96.2,2.45.6.49.4.73,1.06.73,1.98v5.8c0,.66.04,1.3.13,1.93h7.86c-.06-.4-.09-.8-.11-1.2-.02-.4-.02-.92-.02-1.55v-5.8c0-1.66-.22-2.93-.67-3.82-.44-.89-1.15-1.62-2.13-2.19,1.03-.74,1.75-1.64,2.15-2.68.4-1.04.6-2.15.6-3.33,0-1.09-.21-2.13-.62-3.12-.41-.99-.98-1.85-1.7-2.6-.8-.83-1.79-1.5-2.96-2-1.18-.5-2.66-.75-4.47-.75h-20.62Z"/>
    </clipPath>
    <linearGradient id="Dégradé_sans_nom_23-8" data-name="Dégradé sans nom 23" x1="-332.96" y1="556.17" x2="-331.2" y2="556.17" gradientTransform="translate(-150446.41 89997.43) rotate(90) scale(270.98 -270.98)" xlink:href="#Dégradé_sans_nom_23"/>
    <clipPath id="clippath-8">
      <path class="cls-12" d="M296.21,16.07c-1.95,0-3.51.24-4.68.71-1.17.47-2.15,1.11-2.92,1.91-.77.8-1.38,1.72-1.83,2.75-.44,1.03-.66,2.13-.66,3.31s.21,2.31.64,3.33c.43,1.02,1.03,1.93,1.8,2.73.77.8,1.75,1.44,2.94,1.91,1.19.47,2.76.71,4.7.71h11.81c.57,0,1.01.05,1.31.15.3.1.55.27.75.5.4.4.6.92.6,1.55,0,.51-.16.96-.47,1.33-.2.23-.47.41-.79.54s-.79.2-1.4.2h-21.13v7.43h22.51c1.72,0,3.17-.27,4.36-.82,1.19-.54,2.18-1.27,2.99-2.19.66-.77,1.18-1.65,1.57-2.62.39-.97.58-1.99.58-3.05,0-1.15-.22-2.23-.67-3.26-.44-1.03-1.05-1.95-1.82-2.75-.77-.8-1.73-1.44-2.86-1.91-1.13-.47-2.51-.71-4.15-.71h-12.76c-.46,0-.81-.04-1.05-.11-.25-.07-.45-.18-.62-.32-.49-.4-.73-.92-.73-1.55s.2-1.1.6-1.5c.17-.17.39-.31.67-.41.27-.1.65-.15,1.14-.15h20.88v-7.69h-21.31Z"/>
    </clipPath>
    <linearGradient id="Dégradé_sans_nom_23-9" data-name="Dégradé sans nom 23" x1="-332.96" y1="556.18" x2="-331.2" y2="556.18" gradientTransform="translate(-150413.74 89962.92) rotate(90) scale(270.99 -270.99)" xlink:href="#Dégradé_sans_nom_23"/>
    <clipPath id="clippath-9">
      <path class="cls-12" d="M14.95,76.6v-12.5c0-.4.19-.6.56-.6h9.23c1.32,0,2.41.17,3.26.52.86.34,1.61.8,2.24,1.37.66.63,1.18,1.38,1.57,2.24.39.86.58,1.78.58,2.75,0,.89-.16,1.73-.47,2.51-.31.79-.76,1.48-1.33,2.08-.63.69-1.42,1.23-2.36,1.63-.95.4-2.11.6-3.48.6h-9.23c-.37,0-.56-.2-.56-.6M9.06,55.81c-1.26,0-1.89.6-1.89,1.8v25.39c0,1.23.63,1.85,1.89,1.85h15.68c2.61,0,4.87-.42,6.79-1.27,1.92-.84,3.55-2,4.9-3.46,1.17-1.29,2.09-2.76,2.75-4.42.66-1.66.99-3.45.99-5.37,0-2.12-.41-4.09-1.25-5.93-.83-1.83-1.98-3.42-3.44-4.77-1.29-1.2-2.81-2.14-4.58-2.81-1.76-.67-3.82-1.01-6.16-1.01h-15.68Z"/>
    </clipPath>
    <linearGradient id="Dégradé_sans_nom_23-10" data-name="Dégradé sans nom 23" x1="-332.96" y1="556.05" x2="-331.2" y2="556.05" gradientTransform="translate(-150655.9 90271) rotate(90) scale(270.98 -270.98)" xlink:href="#Dégradé_sans_nom_23"/>
    <clipPath id="clippath-10">
      <path class="cls-12" d="M47.98,55.81c-2.75,0-4.12,1.3-4.12,3.91v21.09c0,2.69,1.36,4.04,4.08,4.04h26.46v-7.43h-22.08c-.46,0-.69-.26-.69-.77v-3.52h22.64v-5.58h-22.64v-3.31c0-.48.23-.73.69-.73h22.08v-7.69h-26.42Z"/>
    </clipPath>
    <linearGradient id="Dégradé_sans_nom_23-11" data-name="Dégradé sans nom 23" x1="-332.96" y1="556.05" x2="-331.2" y2="556.05" gradientTransform="translate(-150624.41 90237.34) rotate(90) scale(270.99 -270.99)" xlink:href="#Dégradé_sans_nom_23"/>
    <clipPath id="clippath-11">
      <path class="cls-12" d="M95.19,55.81h0v19.59c0,1.57.16,2.96.47,4.15.31,1.19.84,2.18,1.57,2.96.73.79,1.7,1.38,2.92,1.76,1.22.39,2.71.58,4.49.58h21.09v-7.43h-20.15c-1.01,0-1.69-.2-2.04-.58-.36-.39-.54-1.11-.54-2.17v-18.86h-7.82Z"/>
    </clipPath>
    <linearGradient id="Dégradé_sans_nom_23-12" data-name="Dégradé sans nom 23" x1="-332.96" y1="556.07" x2="-331.2" y2="556.07" gradientTransform="translate(-150576.33 90185.94) rotate(90) scale(270.99 -270.99)" xlink:href="#Dégradé_sans_nom_23"/>
    <clipPath id="clippath-12">
      <polygon class="cls-12" points="123.97 55.81 122.12 70.37 128.22 70.37 131.78 55.81 123.97 55.81"/>
    </clipPath>
    <linearGradient id="Dégradé_sans_nom_23-13" data-name="Dégradé sans nom 23" x1="-332.96" y1="556.08" x2="-331.2" y2="556.08" gradientTransform="translate(-150566.8 90165.85) rotate(90) scale(270.99 -270.99)" xlink:href="#Dégradé_sans_nom_23"/>
    <clipPath id="clippath-13">
      <path class="cls-12" d="M153.05,61.82c.18-.43.42-.73.71-.9.29-.17.6-.24.92-.24.36,0,.69.09.98.27.29.18.53.47.71.87l5.66,13.16h-14.58l5.6-13.16ZM148.1,52.89c-1.7,1.12-3.08,2.83-4.14,5.11l-13.16,29.15c-.15.29-.26.56-.35.82-.09.26-.17.53-.24.82h11.37c.04-.22.09-.43.16-.65.07-.22.14-.44.22-.65l1.9-4.41h21.76l1.96,4.46c.07.18.14.37.22.57.07.2.15.43.22.68h11.09c-.07-.29-.15-.56-.24-.82-.09-.25-.21-.52-.35-.82l-13.27-29.15c-1.05-2.28-2.44-3.99-4.16-5.11-1.72-1.12-3.87-1.68-6.45-1.68s-4.82.56-6.53,1.68"/>
    </clipPath>
    <linearGradient id="Dégradé_sans_nom_23-14" data-name="Dégradé sans nom 23" x1="-332.96" y1="556.08" x2="-331.2" y2="556.08" gradientTransform="translate(-150535.77 90142.22) rotate(90) scale(270.99 -270.99)" xlink:href="#Dégradé_sans_nom_23"/>
    <clipPath id="clippath-14">
      <polygon class="cls-12" points="171.97 55.81 171.97 55.81 171.97 63.49 184.73 63.49 184.73 84.84 192.55 84.84 192.55 63.49 205.26 63.49 205.26 55.81 171.97 55.81"/>
    </clipPath>
    <linearGradient id="Dégradé_sans_nom_23-15" data-name="Dégradé sans nom 23" x1="-332.96" y1="556.08" x2="-331.2" y2="556.08" gradientTransform="translate(-150500.96 90108.03) rotate(90) scale(270.98 -270.98)" xlink:href="#Dégradé_sans_nom_23"/>
    <clipPath id="clippath-15">
      <path class="cls-12" d="M208.14,55.81v19.59c0,1.57.16,2.96.47,4.15.32,1.19.84,2.18,1.57,2.96.73.79,1.7,1.38,2.92,1.76s2.71.58,4.49.58h21.09v-7.43h-20.15c-1,0-1.68-.2-2.04-.58-.36-.39-.54-1.11-.54-2.17v-18.86h-7.82Z"/>
    </clipPath>
    <linearGradient id="Dégradé_sans_nom_23-16" data-name="Dégradé sans nom 23" x1="-332.96" y1="556.1" x2="-331.2" y2="556.1" gradientTransform="translate(-150470.34 90074.11) rotate(90) scale(270.98 -270.98)" xlink:href="#Dégradé_sans_nom_23"/>
    <clipPath id="clippath-16">
      <path class="cls-12" d="M259.21,63.54c.14-.34.33-.58.56-.71.23-.13.47-.19.73-.19.29,0,.54.07.77.21.23.14.41.37.56.69l4.47,10.4h-11.51l4.42-10.4ZM255.3,56.49c-1.34.89-2.43,2.24-3.26,4.04l-10.4,23.02c-.11.23-.21.44-.28.64-.07.2-.14.41-.19.64h8.98c.03-.17.07-.34.13-.51.06-.17.11-.34.17-.52l1.5-3.48h17.18l1.54,3.52c.06.14.11.29.17.45.06.16.11.34.17.54h8.76c-.06-.23-.12-.44-.19-.64-.07-.2-.17-.41-.28-.64l-10.48-23.02c-.83-1.8-1.93-3.15-3.29-4.04-1.36-.89-3.06-1.33-5.09-1.33s-3.81.44-5.16,1.33"/>
    </clipPath>
    <linearGradient id="Dégradé_sans_nom_23-17" data-name="Dégradé sans nom 23" x1="-332.96" y1="556.11" x2="-331.2" y2="556.11" gradientTransform="translate(-150436.72 90037.54) rotate(90) scale(270.99 -270.99)" xlink:href="#Dégradé_sans_nom_23"/>
    <clipPath id="clippath-17">
      <path class="cls-12" d="M286.79,55.53c-.83.24-1.55.64-2.15,1.18-.6.54-1.07,1.25-1.4,2.11-.33.86-.49,1.91-.49,3.14v22.9h7.65v-19.67c0-.26.07-.46.21-.6.14-.14.32-.21.51-.21.23,0,.46.13.69.38l15.94,18.43c.69.8,1.5,1.38,2.43,1.74.93.36,2.01.54,3.24.54.72,0,1.4-.12,2.06-.37.66-.24,1.24-.61,1.74-1.12.5-.5.9-1.14,1.2-1.93.3-.79.45-1.73.45-2.81v-23.41h-7.6v18.77c0,.52-.2.77-.6.77-.14,0-.27-.02-.38-.07-.12-.04-.23-.14-.34-.28l-14.17-16.97c-.92-1.06-1.85-1.8-2.79-2.23-.95-.43-2.11-.64-3.48-.64-.97,0-1.87.12-2.71.37"/>
    </clipPath>
    <linearGradient id="Dégradé_sans_nom_23-18" data-name="Dégradé sans nom 23" x1="-332.96" y1="556.11" x2="-331.2" y2="556.11" gradientTransform="translate(-150398.58 89998.1) rotate(90) scale(270.99 -270.99)" xlink:href="#Dégradé_sans_nom_23"/>
    <clipPath id="clippath-18">
      <polygon class="cls-12" points="321.88 55.81 321.88 63.49 334.64 63.49 334.64 84.84 342.45 84.84 342.45 63.49 355.17 63.49 355.17 55.81 321.88 55.81"/>
    </clipPath>
    <linearGradient id="Dégradé_sans_nom_23-19" data-name="Dégradé sans nom 23" x1="-332.96" y1="556.12" x2="-331.2" y2="556.12" gradientTransform="translate(-150362.23 89960.52) rotate(90) scale(270.99 -270.99)" xlink:href="#Dégradé_sans_nom_23"/>
    <clipPath id="clippath-19">
      <polygon class="cls-12" points="358.26 55.81 358.26 55.81 358.26 84.84 358.26 84.84 366.08 84.84 366.08 55.81 358.26 55.81"/>
    </clipPath>
    <linearGradient id="Dégradé_sans_nom_23-20" data-name="Dégradé sans nom 23" x1="-332.96" y1="556.13" x2="-331.2" y2="556.13" gradientTransform="translate(-150337.79 89935.47) rotate(90) scale(270.98 -270.98)" xlink:href="#Dégradé_sans_nom_23"/>
    <clipPath id="clippath-20">
      <path class="cls-12" d="M381.27,75.97c-.9-.39-1.66-.91-2.26-1.57-.54-.57-.97-1.24-1.27-2-.3-.76-.45-1.55-.45-2.38,0-.92.18-1.79.54-2.62.36-.83.87-1.53,1.53-2.1.57-.57,1.27-1.02,2.08-1.33.82-.31,1.85-.47,3.11-.47h7.3c1.26,0,2.3.16,3.11.47.82.32,1.51.76,2.08,1.33.66.57,1.16,1.27,1.53,2.1.36.83.54,1.7.54,2.62,0,.83-.15,1.63-.45,2.38-.3.76-.72,1.43-1.27,2-.6.66-1.35,1.18-2.25,1.57-.9.39-2,.58-3.29.58h-7.3c-1.29,0-2.38-.19-3.28-.58M384.77,55.81c-2.29,0-4.29.33-5.99.99-1.71.66-3.19,1.58-4.45,2.75-1.4,1.29-2.51,2.83-3.33,4.62-.82,1.79-1.22,3.71-1.22,5.78,0,1.89.32,3.64.97,5.24.64,1.6,1.54,3.03,2.68,4.3,1.29,1.43,2.87,2.55,4.75,3.37,1.87.82,4.07,1.23,6.59,1.23h6.92c.31,0,.62,0,.9-.02.28-.01.57-.03.86-.06.74.86,1.33,1.54,1.76,2.04.43.5.75.88.97,1.14.22.26.36.44.43.54.07.1.12.18.15.24h10.48c-.08-.17-.19-.36-.32-.56-.13-.2-.28-.39-.45-.56l-5.24-5.8c.92-.63,1.72-1.37,2.4-2.21.69-.85,1.25-1.75,1.7-2.73.44-.97.78-1.98,1.01-3.03.23-1.04.34-2.08.34-3.11,0-2.06-.41-3.99-1.22-5.78-.82-1.79-1.92-3.33-3.33-4.62-1.26-1.17-2.74-2.09-4.45-2.75-1.7-.66-3.7-.99-5.99-.99h-6.92Z"/>
    </clipPath>
    <linearGradient id="Dégradé_sans_nom_23-21" data-name="Dégradé sans nom 23" x1="-332.96" y1="556.13" x2="-331.2" y2="556.13" gradientTransform="translate(-150314.7 89912.37) rotate(90) scale(270.98 -270.98)" xlink:href="#Dégradé_sans_nom_23"/>
    <clipPath id="clippath-21">
      <path class="cls-12" d="M435.19,55.81v18.9c0,1.8-.96,2.71-2.88,2.71h-12.07c-1.86,0-2.79-.9-2.79-2.71v-18.9h-7.82v19.76c0,1.63.18,3.03.56,4.19.37,1.16.97,2.12,1.78,2.88.82.76,1.87,1.32,3.16,1.67,1.29.36,2.85.54,4.68.54h13.02c3.64,0,6.24-.74,7.82-2.21,1.57-1.48,2.36-3.83,2.36-7.07v-19.76h-7.82Z"/>
    </clipPath>
    <linearGradient id="Dégradé_sans_nom_23-22" data-name="Dégradé sans nom 23" x1="-332.96" y1="556.14" x2="-331.2" y2="556.14" gradientTransform="translate(-150280.77 89874.12) rotate(90) scale(270.99 -270.99)" xlink:href="#Dégradé_sans_nom_23"/>
    <clipPath id="clippath-22">
      <path class="cls-12" d="M451.21,55.81c-2.75,0-4.12,1.3-4.12,3.91v21.09c0,2.69,1.36,4.04,4.08,4.04h26.46v-7.43h-22.08c-.46,0-.69-.26-.69-.77v-3.52h22.64v-5.58h-22.64v-3.31c0-.48.23-.73.69-.73h22.08v-7.69h-26.42Z"/>
    </clipPath>
    <linearGradient id="Dégradé_sans_nom_23-23" data-name="Dégradé sans nom 23" x1="-332.96" y1="556.15" x2="-331.2" y2="556.15" gradientTransform="translate(-150248.67 89839.42) rotate(90) scale(270.99 -270.99)" xlink:href="#Dégradé_sans_nom_23"/>
  </defs>
  <g class="cls-43">
    <rect class="cls-13" x="5.56" y="8.09" width="43.3" height="45.01" transform="translate(-7.24 52.71) rotate(-81.05)"/>
  </g>
  <g class="cls-38">
    <rect class="cls-2" x="51.16" y="12.06" width="33.81" height="37.07" transform="translate(27.25 93.06) rotate(-81.05)"/>
  </g>
  <g class="cls-31">
    <rect class="cls-1" x="89.23" y="8.89" width="35.33" height="42.76" transform="translate(60.36 131.15) rotate(-81.05)"/>
  </g>
  <g class="cls-45">
    <rect class="cls-10" x="129.46" y="10.37" width="35.54" height="40.4" transform="translate(94.12 171.25) rotate(-81.05)"/>
  </g>
  <g class="cls-39">
    <rect class="cls-19" x="168.01" y="11.89" width="33.86" height="37.4" transform="translate(125.94 208.52) rotate(-81.05)"/>
  </g>
  <g class="cls-50">
    <rect class="cls-23" x="193.64" y="24.47" width="29.9" height="12.24" transform="translate(145.91 231.88) rotate(-81.05)"/>
  </g>
  <g class="cls-34">
    <rect class="cls-17" x="215.34" y="13.25" width="33.44" height="34.69" transform="translate(165.73 255.07) rotate(-81.05)"/>
  </g>
  <g class="cls-36">
    <rect class="cls-26" x="250.35" y="12.29" width="33.74" height="36.6" transform="translate(195.42 289.8) rotate(-81.05)"/>
  </g>
  <g class="cls-46">
    <rect class="cls-16" x="285.61" y="12.15" width="33.78" height="36.89" transform="translate(225.21 324.65) rotate(-81.05)"/>
  </g>
  <g class="cls-42">
    <rect class="cls-14" x="6.76" y="51.77" width="33.82" height="37.1" transform="translate(-49.48 82.76) rotate(-81.05)"/>
  </g>
  <g class="cls-51">
    <rect class="cls-3" x="42.41" y="52.98" width="33.44" height="34.69" transform="translate(-19.54 117.79) rotate(-81.05)"/>
  </g>
  <g class="cls-29">
    <rect class="cls-5" x="93.74" y="52.98" width="33.44" height="34.69" transform="translate(23.8 168.49) rotate(-81.05)"/>
  </g>
  <g class="cls-40">
    <rect class="cls-9" x="119.01" y="57.18" width="15.89" height="11.81" transform="translate(44.88 178.68) rotate(-81.05)"/>
  </g>
  <g class="cls-32">
    <rect class="cls-24" x="132.29" y="42.93" width="44.73" height="54.15" transform="translate(61.44 211.88) rotate(-81.05)"/>
  </g>
  <g class="cls-48">
    <rect class="cls-6" x="171.68" y="51.62" width="33.86" height="37.4" transform="translate(89.79 245.7) rotate(-81.05)"/>
  </g>
  <g class="cls-33">
    <rect class="cls-25" x="206.69" y="52.98" width="33.44" height="34.69" transform="translate(119.17 280.07) rotate(-81.05)"/>
  </g>
  <g class="cls-30">
    <rect class="cls-22" x="242.81" y="48.62" width="35.33" height="42.77" transform="translate(150.79 316.41) rotate(-81.05)"/>
  </g>
  <g class="cls-49">
    <rect class="cls-18" x="283.04" y="50.11" width="35.54" height="40.4" transform="translate(184.55 356.51) rotate(-81.05)"/>
  </g>
  <g class="cls-47">
    <rect class="cls-8" x="321.59" y="51.62" width="33.86" height="37.4" transform="translate(216.38 393.78) rotate(-81.05)"/>
  </g>
  <g class="cls-44">
    <rect class="cls-4" x="347.22" y="64.21" width="29.9" height="12.24" transform="translate(236.34 417.14) rotate(-81.05)"/>
  </g>
  <g class="cls-28">
    <rect class="cls-11" x="369.72" y="50.87" width="37.57" height="42" transform="translate(257.05 444.46) rotate(-81.05)"/>
  </g>
  <g class="cls-37">
    <rect class="cls-27" x="409.38" y="51.58" width="33.88" height="37.49" transform="translate(290.51 480.51) rotate(-81.05)"/>
  </g>
  <g class="cls-41">
    <rect class="cls-21" x="445.64" y="52.98" width="33.44" height="34.69" transform="translate(320.94 516.11) rotate(-81.05)"/>
  </g>
  <path class="cls-15" d="M21.77,105.34c0,3.93-2.85,6.3-7.54,6.3h-4.96v5.83h-1.95v-18.46h6.91c4.7,0,7.54,2.37,7.54,6.33M19.81,105.34c0-2.95-1.95-4.64-5.65-4.64h-4.9v9.23h4.9c3.69,0,5.65-1.69,5.65-4.59"/>
  <path class="cls-35" d="M21.77,105.34c0,3.93-2.85,6.3-7.54,6.3h-4.96v5.83h-1.95v-18.46h6.91c4.7,0,7.54,2.37,7.54,6.33ZM19.81,105.34c0-2.95-1.95-4.64-5.65-4.64h-4.9v9.23h4.9c3.69,0,5.65-1.69,5.65-4.59Z"/>
  <path class="cls-15" d="M36.24,108.87v8.6h-1.79v-2.16c-.84,1.42-2.48,2.29-4.77,2.29-3.14,0-5.06-1.64-5.06-4.04,0-2.14,1.37-3.93,5.36-3.93h4.4v-.85c0-2.37-1.35-3.67-3.93-3.67-1.79,0-3.48.63-4.61,1.64l-.85-1.4c1.4-1.19,3.46-1.87,5.64-1.87,3.59,0,5.62,1.79,5.62,5.38M34.36,113.3v-2.27h-4.35c-2.69,0-3.56,1.05-3.56,2.48,0,1.61,1.29,2.61,3.51,2.61s3.67-1,4.4-2.82"/>
  <path class="cls-35" d="M36.24,108.87v8.6h-1.79v-2.16c-.84,1.42-2.48,2.29-4.77,2.29-3.14,0-5.06-1.64-5.06-4.04,0-2.14,1.37-3.93,5.36-3.93h4.4v-.85c0-2.37-1.35-3.67-3.93-3.67-1.79,0-3.48.63-4.61,1.64l-.85-1.4c1.4-1.19,3.46-1.87,5.64-1.87,3.59,0,5.62,1.79,5.62,5.38ZM34.36,113.3v-2.27h-4.35c-2.69,0-3.56,1.05-3.56,2.48,0,1.61,1.29,2.61,3.51,2.61s3.67-1,4.4-2.82Z"/>
  <path class="cls-15" d="M48.04,103.49v1.82c-.16,0-.32-.03-.45-.03-2.9,0-4.67,1.85-4.67,5.12v7.07h-1.87v-13.87h1.79v2.72c.87-1.85,2.64-2.82,5.2-2.82"/>
  <path class="cls-35" d="M48.04,103.49v1.82c-.16,0-.32-.03-.45-.03-2.9,0-4.67,1.85-4.67,5.12v7.07h-1.87v-13.87h1.79v2.72c.87-1.85,2.64-2.82,5.2-2.82Z"/>
  <path class="cls-15" d="M49.67,110.54c0-4.14,3.01-7.04,7.15-7.04,2.35,0,4.32.92,5.43,2.74l-1.4.95c-.95-1.4-2.43-2.06-4.03-2.06-3.03,0-5.25,2.16-5.25,5.41s2.22,5.41,5.25,5.41c1.61,0,3.08-.63,4.03-2.03l1.4.95c-1.11,1.79-3.09,2.74-5.43,2.74-4.14,0-7.15-2.93-7.15-7.07"/>
  <path class="cls-35" d="M49.67,110.54c0-4.14,3.01-7.04,7.15-7.04,2.35,0,4.32.92,5.43,2.74l-1.4.95c-.95-1.4-2.43-2.06-4.03-2.06-3.03,0-5.25,2.16-5.25,5.41s2.22,5.41,5.25,5.41c1.61,0,3.08-.63,4.03-2.03l1.4.95c-1.11,1.79-3.09,2.74-5.43,2.74-4.14,0-7.15-2.93-7.15-7.07Z"/>
  <path class="cls-15" d="M77.9,111.12h-11.61c.21,2.9,2.43,4.83,5.46,4.83,1.69,0,3.19-.61,4.25-1.82l1.05,1.21c-1.24,1.48-3.16,2.27-5.35,2.27-4.32,0-7.28-2.95-7.28-7.07s2.87-7.04,6.78-7.04,6.72,2.87,6.72,7.04c0,.16-.02.37-.02.58M66.3,109.72h9.84c-.24-2.72-2.22-4.62-4.93-4.62s-4.67,1.9-4.91,4.62"/>
  <path class="cls-35" d="M77.9,111.12h-11.61c.21,2.9,2.43,4.83,5.46,4.83,1.69,0,3.19-.61,4.25-1.82l1.05,1.21c-1.24,1.48-3.16,2.27-5.35,2.27-4.32,0-7.28-2.95-7.28-7.07s2.87-7.04,6.78-7.04,6.72,2.87,6.72,7.04c0,.16-.02.37-.02.58ZM66.3,109.72h9.84c-.24-2.72-2.22-4.62-4.93-4.62s-4.67,1.9-4.91,4.62Z"/>
  <path class="cls-15" d="M102.27,103.6v18.99h-1.87v-7.73c-1.16,1.79-3.06,2.74-5.27,2.74-3.96,0-6.91-2.85-6.91-7.07s2.96-7.04,6.91-7.04c2.29,0,4.22,1,5.35,2.85v-2.74h1.79ZM100.42,110.54c0-3.22-2.22-5.41-5.14-5.41s-5.17,2.19-5.17,5.41,2.22,5.41,5.17,5.41,5.14-2.16,5.14-5.41"/>
  <path class="cls-35" d="M102.27,103.6v18.99h-1.87v-7.73c-1.16,1.79-3.06,2.74-5.27,2.74-3.96,0-6.91-2.85-6.91-7.07s2.96-7.04,6.91-7.04c2.29,0,4.22,1,5.35,2.85v-2.74h1.79ZM100.42,110.54c0-3.22-2.22-5.41-5.14-5.41s-5.17,2.19-5.17,5.41,2.22,5.41,5.17,5.41,5.14-2.16,5.14-5.41Z"/>
  <path class="cls-15" d="M119.71,103.6v13.87h-1.79v-2.53c-.98,1.69-2.77,2.66-4.98,2.66-3.54,0-5.86-1.98-5.86-5.96v-8.04h1.87v7.86c0,2.95,1.53,4.46,4.17,4.46,2.9,0,4.72-1.87,4.72-5.04v-7.28h1.87Z"/>
  <path class="cls-35" d="M119.71,103.6v13.87h-1.79v-2.53c-.98,1.69-2.77,2.66-4.98,2.66-3.54,0-5.86-1.98-5.86-5.96v-8.04h1.87v7.86c0,2.95,1.53,4.46,4.17,4.46,2.9,0,4.72-1.87,4.72-5.04v-7.28h1.87Z"/>
  <path class="cls-15" d="M137.06,111.12h-11.6c.21,2.9,2.43,4.83,5.46,4.83,1.69,0,3.19-.61,4.25-1.82l1.05,1.21c-1.24,1.48-3.16,2.27-5.35,2.27-4.33,0-7.28-2.95-7.28-7.07s2.87-7.04,6.78-7.04,6.72,2.87,6.72,7.04c0,.16-.03.37-.03.58M125.45,109.72h9.84c-.24-2.72-2.22-4.62-4.93-4.62s-4.67,1.9-4.91,4.62"/>
  <path class="cls-35" d="M137.06,111.12h-11.6c.21,2.9,2.43,4.83,5.46,4.83,1.69,0,3.19-.61,4.25-1.82l1.05,1.21c-1.24,1.48-3.16,2.27-5.35,2.27-4.33,0-7.28-2.95-7.28-7.07s2.87-7.04,6.78-7.04,6.72,2.87,6.72,7.04c0,.16-.03.37-.03.58ZM125.45,109.72h9.84c-.24-2.72-2.22-4.62-4.93-4.62s-4.67,1.9-4.91,4.62Z"/>
  <rect class="cls-15" x="148.77" y="97.9" width="1.87" height="19.57"/>
  <rect class="cls-35" x="148.77" y="97.9" width="1.87" height="19.57"/>
  <path class="cls-15" d="M166.19,108.87v8.6h-1.79v-2.16c-.84,1.42-2.48,2.29-4.77,2.29-3.14,0-5.06-1.64-5.06-4.04,0-2.14,1.37-3.93,5.36-3.93h4.4v-.85c0-2.37-1.35-3.67-3.93-3.67-1.79,0-3.48.63-4.62,1.64l-.85-1.4c1.4-1.19,3.46-1.87,5.64-1.87,3.59,0,5.62,1.79,5.62,5.38M164.31,113.3v-2.27h-4.35c-2.69,0-3.56,1.05-3.56,2.48,0,1.61,1.29,2.61,3.51,2.61s3.67-1,4.4-2.82"/>
  <path class="cls-35" d="M166.19,108.87v8.6h-1.79v-2.16c-.84,1.42-2.48,2.29-4.77,2.29-3.14,0-5.06-1.64-5.06-4.04,0-2.14,1.37-3.93,5.36-3.93h4.4v-.85c0-2.37-1.35-3.67-3.93-3.67-1.79,0-3.48.63-4.62,1.64l-.85-1.4c1.4-1.19,3.46-1.87,5.64-1.87,3.59,0,5.62,1.79,5.62,5.38ZM164.31,113.3v-2.27h-4.35c-2.69,0-3.56,1.05-3.56,2.48,0,1.61,1.29,2.61,3.51,2.61s3.67-1,4.4-2.82Z"/>
  <path class="cls-15" d="M202.03,109.43v8.04h-1.87v-7.86c0-2.93-1.48-4.43-3.98-4.43-2.85,0-4.64,1.84-4.64,5.01v7.28h-1.87v-7.86c0-2.93-1.48-4.43-4.01-4.43-2.82,0-4.64,1.84-4.64,5.01v7.28h-1.87v-13.87h1.79v2.53c.98-1.66,2.77-2.64,5.09-2.64s4.09.98,4.93,2.93c1-1.79,2.98-2.93,5.49-2.93,3.38,0,5.59,1.95,5.59,5.93"/>
  <path class="cls-35" d="M202.03,109.43v8.04h-1.87v-7.86c0-2.93-1.48-4.43-3.98-4.43-2.85,0-4.64,1.84-4.64,5.01v7.28h-1.87v-7.86c0-2.93-1.48-4.43-4.01-4.43-2.82,0-4.64,1.84-4.64,5.01v7.28h-1.87v-13.87h1.79v2.53c.98-1.66,2.77-2.64,5.09-2.64s4.09.98,4.93,2.93c1-1.79,2.98-2.93,5.49-2.93,3.38,0,5.59,1.95,5.59,5.93Z"/>
  <path class="cls-15" d="M219.22,111.12h-11.6c.21,2.9,2.43,4.83,5.46,4.83,1.69,0,3.19-.61,4.25-1.82l1.05,1.21c-1.24,1.48-3.16,2.27-5.35,2.27-4.32,0-7.28-2.95-7.28-7.07s2.87-7.04,6.78-7.04,6.72,2.87,6.72,7.04c0,.16-.03.37-.03.58M207.62,109.72h9.84c-.24-2.72-2.22-4.62-4.93-4.62s-4.67,1.9-4.91,4.62"/>
  <path class="cls-35" d="M219.22,111.12h-11.6c.21,2.9,2.43,4.83,5.46,4.83,1.69,0,3.19-.61,4.25-1.82l1.05,1.21c-1.24,1.48-3.16,2.27-5.35,2.27-4.32,0-7.28-2.95-7.28-7.07s2.87-7.04,6.78-7.04,6.72,2.87,6.72,7.04c0,.16-.03.37-.03.58ZM207.62,109.72h9.84c-.24-2.72-2.22-4.62-4.93-4.62s-4.67,1.9-4.91,4.62Z"/>
  <path class="cls-15" d="M229.98,103.49v1.82c-.16,0-.32-.03-.45-.03-2.9,0-4.67,1.85-4.67,5.12v7.07h-1.87v-13.87h1.79v2.72c.87-1.85,2.64-2.82,5.2-2.82"/>
  <path class="cls-35" d="M229.98,103.49v1.82c-.16,0-.32-.03-.45-.03-2.9,0-4.67,1.85-4.67,5.12v7.07h-1.87v-13.87h1.79v2.72c.87-1.85,2.64-2.82,5.2-2.82Z"/>
  <path class="cls-15" d="M253.5,111.12h-11.6c.21,2.9,2.43,4.83,5.46,4.83,1.69,0,3.19-.61,4.25-1.82l1.06,1.21c-1.24,1.48-3.17,2.27-5.36,2.27-4.32,0-7.28-2.95-7.28-7.07s2.87-7.04,6.78-7.04,6.72,2.87,6.72,7.04c0,.16-.03.37-.03.58M241.9,109.72h9.84c-.24-2.72-2.22-4.62-4.93-4.62s-4.67,1.9-4.91,4.62"/>
  <path class="cls-35" d="M253.5,111.12h-11.6c.21,2.9,2.43,4.83,5.46,4.83,1.69,0,3.19-.61,4.25-1.82l1.06,1.21c-1.24,1.48-3.17,2.27-5.36,2.27-4.32,0-7.28-2.95-7.28-7.07s2.87-7.04,6.78-7.04,6.72,2.87,6.72,7.04c0,.16-.03.37-.03.58ZM241.9,109.72h9.84c-.24-2.72-2.22-4.62-4.93-4.62s-4.67,1.9-4.91,4.62Z"/>
  <path class="cls-15" d="M255.69,115.89l.84-1.48c1.11.87,2.98,1.56,4.93,1.56,2.64,0,3.72-.9,3.72-2.27,0-3.61-8.99-.76-8.99-6.25,0-2.27,1.95-3.96,5.49-3.96,1.79,0,3.75.5,4.91,1.29l-.82,1.5c-1.21-.85-2.66-1.19-4.09-1.19-2.51,0-3.61.98-3.61,2.29,0,3.75,8.99.92,8.99,6.25,0,2.4-2.11,3.96-5.72,3.96-2.29,0-4.51-.74-5.64-1.71"/>
  <path class="cls-35" d="M255.69,115.89l.84-1.48c1.11.87,2.98,1.56,4.93,1.56,2.64,0,3.72-.9,3.72-2.27,0-3.61-8.99-.76-8.99-6.25,0-2.27,1.95-3.96,5.49-3.96,1.79,0,3.75.5,4.91,1.29l-.82,1.5c-1.21-.85-2.66-1.19-4.09-1.19-2.51,0-3.61.98-3.61,2.29,0,3.75,8.99.92,8.99,6.25,0,2.4-2.11,3.96-5.72,3.96-2.29,0-4.51-.74-5.64-1.71Z"/>
  <path class="cls-15" d="M278.44,116.63c-.74.66-1.85.98-2.93.98-2.61,0-4.06-1.48-4.06-4.04v-8.39h-2.48v-1.58h2.48v-3.03h1.87v3.03h4.22v1.58h-4.22v8.28c0,1.63.85,2.53,2.4,2.53.77,0,1.53-.24,2.06-.71l.66,1.34Z"/>
  <path class="cls-35" d="M278.44,116.63c-.74.66-1.85.98-2.93.98-2.61,0-4.06-1.48-4.06-4.04v-8.39h-2.48v-1.58h2.48v-3.03h1.87v3.03h4.22v1.58h-4.22v8.28c0,1.63.85,2.53,2.4,2.53.77,0,1.53-.24,2.06-.71l.66,1.34Z"/>
  <path class="cls-15" d="M302.47,109.43v8.04h-1.87v-7.86c0-2.93-1.53-4.43-4.17-4.43-2.98,0-4.85,1.84-4.85,5.01v7.28h-1.87v-13.87h1.79v2.56c1-1.69,2.87-2.66,5.27-2.66,3.38,0,5.7,1.95,5.7,5.93"/>
  <path class="cls-35" d="M302.47,109.43v8.04h-1.87v-7.86c0-2.93-1.53-4.43-4.17-4.43-2.98,0-4.85,1.84-4.85,5.01v7.28h-1.87v-13.87h1.79v2.56c1-1.69,2.87-2.66,5.27-2.66,3.38,0,5.7,1.95,5.7,5.93Z"/>
  <path class="cls-15" d="M306.16,110.54c0-4.12,3.01-7.04,7.07-7.04s7.04,2.93,7.04,7.04-2.98,7.07-7.04,7.07-7.07-2.96-7.07-7.07M318.37,110.54c0-3.24-2.19-5.41-5.14-5.41s-5.17,2.16-5.17,5.41,2.22,5.41,5.17,5.41,5.14-2.16,5.14-5.41"/>
  <path class="cls-35" d="M306.16,110.54c0-4.12,3.01-7.04,7.07-7.04s7.04,2.93,7.04,7.04-2.98,7.07-7.04,7.07-7.07-2.96-7.07-7.07ZM318.37,110.54c0-3.24-2.19-5.41-5.14-5.41s-5.17,2.16-5.17,5.41,2.22,5.41,5.17,5.41,5.14-2.16,5.14-5.41Z"/>
  <path class="cls-15" d="M331.27,116.63c-.74.66-1.85.98-2.93.98-2.61,0-4.06-1.48-4.06-4.04v-8.39h-2.48v-1.58h2.48v-3.03h1.87v3.03h4.22v1.58h-4.22v8.28c0,1.63.85,2.53,2.4,2.53.76,0,1.53-.24,2.06-.71l.66,1.34Z"/>
  <path class="cls-35" d="M331.27,116.63c-.74.66-1.85.98-2.93.98-2.61,0-4.06-1.48-4.06-4.04v-8.39h-2.48v-1.58h2.48v-3.03h1.87v3.03h4.22v1.58h-4.22v8.28c0,1.63.85,2.53,2.4,2.53.76,0,1.53-.24,2.06-.71l.66,1.34Z"/>
  <path class="cls-15" d="M341.42,103.49v1.82c-.16,0-.32-.03-.45-.03-2.9,0-4.67,1.85-4.67,5.12v7.07h-1.87v-13.87h1.79v2.72c.87-1.85,2.64-2.82,5.2-2.82"/>
  <path class="cls-35" d="M341.42,103.49v1.82c-.16,0-.32-.03-.45-.03-2.9,0-4.67,1.85-4.67,5.12v7.07h-1.87v-13.87h1.79v2.72c.87-1.85,2.64-2.82,5.2-2.82Z"/>
  <path class="cls-15" d="M356.57,111.12h-11.6c.21,2.9,2.43,4.83,5.46,4.83,1.69,0,3.19-.61,4.25-1.82l1.05,1.21c-1.24,1.48-3.16,2.27-5.35,2.27-4.32,0-7.28-2.95-7.28-7.07s2.88-7.04,6.78-7.04,6.72,2.87,6.72,7.04c0,.16-.03.37-.03.58M344.97,109.72h9.84c-.24-2.72-2.22-4.62-4.93-4.62s-4.67,1.9-4.91,4.62"/>
  <path class="cls-35" d="M356.57,111.12h-11.6c.21,2.9,2.43,4.83,5.46,4.83,1.69,0,3.19-.61,4.25-1.82l1.05,1.21c-1.24,1.48-3.16,2.27-5.35,2.27-4.32,0-7.28-2.95-7.28-7.07s2.88-7.04,6.78-7.04,6.72,2.87,6.72,7.04c0,.16-.03.37-.03.58ZM344.97,109.72h9.84c-.24-2.72-2.22-4.62-4.93-4.62s-4.67,1.9-4.91,4.62Z"/>
  <path class="cls-15" d="M378.75,108.87v8.6h-1.79v-2.16c-.84,1.42-2.48,2.29-4.77,2.29-3.14,0-5.06-1.64-5.06-4.04,0-2.14,1.37-3.93,5.35-3.93h4.41v-.85c0-2.37-1.34-3.67-3.93-3.67-1.79,0-3.48.63-4.62,1.64l-.84-1.4c1.4-1.19,3.45-1.87,5.64-1.87,3.59,0,5.62,1.79,5.62,5.38M376.88,113.3v-2.27h-4.35c-2.69,0-3.56,1.05-3.56,2.48,0,1.61,1.29,2.61,3.51,2.61s3.67-1,4.41-2.82"/>
  <path class="cls-35" d="M378.75,108.87v8.6h-1.79v-2.16c-.84,1.42-2.48,2.29-4.77,2.29-3.14,0-5.06-1.64-5.06-4.04,0-2.14,1.37-3.93,5.35-3.93h4.41v-.85c0-2.37-1.34-3.67-3.93-3.67-1.79,0-3.48.63-4.62,1.64l-.84-1.4c1.4-1.19,3.45-1.87,5.64-1.87,3.59,0,5.62,1.79,5.62,5.38ZM376.88,113.3v-2.27h-4.35c-2.69,0-3.56,1.05-3.56,2.48,0,1.61,1.29,2.61,3.51,2.61s3.67-1,4.41-2.82Z"/>
  <polygon class="cls-15" points="395.01 103.6 388.84 117.47 386.92 117.47 380.77 103.6 382.72 103.6 387.92 115.41 393.17 103.6 395.01 103.6"/>
  <polygon class="cls-35" points="395.01 103.6 388.84 117.47 386.92 117.47 380.77 103.6 382.72 103.6 387.92 115.41 393.17 103.6 395.01 103.6"/>
  <path class="cls-15" d="M409.55,111.12h-11.61c.21,2.9,2.43,4.83,5.46,4.83,1.69,0,3.19-.61,4.25-1.82l1.05,1.21c-1.24,1.48-3.16,2.27-5.35,2.27-4.32,0-7.28-2.95-7.28-7.07s2.88-7.04,6.78-7.04,6.72,2.87,6.72,7.04c0,.16-.02.37-.02.58M397.94,109.72h9.84c-.24-2.72-2.22-4.62-4.93-4.62s-4.67,1.9-4.91,4.62"/>
  <path class="cls-35" d="M409.55,111.12h-11.61c.21,2.9,2.43,4.83,5.46,4.83,1.69,0,3.19-.61,4.25-1.82l1.05,1.21c-1.24,1.48-3.16,2.27-5.35,2.27-4.32,0-7.28-2.95-7.28-7.07s2.88-7.04,6.78-7.04,6.72,2.87,6.72,7.04c0,.16-.02.37-.02.58ZM397.94,109.72h9.84c-.24-2.72-2.22-4.62-4.93-4.62s-4.67,1.9-4.91,4.62Z"/>
  <path class="cls-15" d="M426.08,109.43v8.04h-1.87v-7.86c0-2.93-1.53-4.43-4.17-4.43-2.98,0-4.85,1.84-4.85,5.01v7.28h-1.87v-13.87h1.79v2.56c1-1.69,2.87-2.66,5.27-2.66,3.38,0,5.7,1.95,5.7,5.93"/>
  <path class="cls-35" d="M426.08,109.43v8.04h-1.87v-7.86c0-2.93-1.53-4.43-4.17-4.43-2.98,0-4.85,1.84-4.85,5.01v7.28h-1.87v-13.87h1.79v2.56c1-1.69,2.87-2.66,5.27-2.66,3.38,0,5.7,1.95,5.7,5.93Z"/>
  <path class="cls-15" d="M430.38,99.22c0-.71.61-1.32,1.37-1.32s1.37.58,1.37,1.29c0,.77-.58,1.37-1.37,1.37s-1.37-.61-1.37-1.35M430.81,103.6h1.87v13.87h-1.87v-13.87Z"/>
  <path class="cls-35" d="M430.38,99.22c0-.71.61-1.32,1.37-1.32s1.37.58,1.37,1.29c0,.77-.58,1.37-1.37,1.37s-1.37-.61-1.37-1.35ZM430.81,103.6h1.87v13.87h-1.87v-13.87Z"/>
  <path class="cls-15" d="M444.55,103.49v1.82c-.16,0-.32-.03-.45-.03-2.9,0-4.67,1.85-4.67,5.12v7.07h-1.87v-13.87h1.79v2.72c.87-1.85,2.64-2.82,5.2-2.82"/>
  <path class="cls-35" d="M444.55,103.49v1.82c-.16,0-.32-.03-.45-.03-2.9,0-4.67,1.85-4.67,5.12v7.07h-1.87v-13.87h1.79v2.72c.87-1.85,2.64-2.82,5.2-2.82Z"/>
  <path class="cls-7" d="M258.56,181.29c54.95-11.16,120.17-13.54,171.72-7-54.37-10.17-123.7-7.06-171.72,7"/>
  <g>
    <g>
      <path class="cls-20" d="M201.67,167.25c-2.27,4.83-3.85,9.28-6.91,13.9-10.73,12.02-8.67,4.16-2.04-4.4-4.5-14.64-17.23,18.76-2.67,11.34,3.65-1.77,14.71-19.42,11.62-20.83ZM185.52,183.95c-.14.12-.28.23-.4.32-.01-.15,0-.29-.01-.44-.07-.15-.09-.4-.02-.8.03-1.01.22-1.95.52-2.85.39-1.53,1.24-3.01,2.31-4.1.29-.38.6-.76.91-1.12.15,0,.27.04.4.06.01,0,.02-.02.03-.02,1.05-.15,1.36.43,1.22,1.35,0,1.08-.8,2.62-1.85,4.08-1.11,1.73-2.42,3.25-3.11,3.51Z"/>
      <g>
        <path class="cls-20" d="M201.4,167.09c-1.5,3.2-2.81,6.5-4.43,9.64-.85,1.65-1.74,3.39-2.97,4.79-1.03,1.17-2.12,2.29-3.26,3.35-.33.3-2.63,2.61-3.16,2.03-.22-.24.12-1.09.2-1.34.25-.76.6-1.48.97-2.18,1.06-2.05,2.36-3.98,3.74-5.82.29-.39.57-.58.48-1.07-.06-.36-.25-.74-.4-1.08-.23-.55-.5-1.08-.86-1.55-1.11-1.44-2.7-1.47-4.07-.36-1.73,1.4-2.8,3.64-3.55,5.67-.8,2.17-1.4,4.66-1.05,6.98.27,1.83,1.38,3.32,3.35,3.33,2.67.02,4.85-1.65,6.51-3.56,2.62-3.02,4.83-6.46,6.74-9.96.87-1.6,1.7-3.24,2.31-4.96.34-.95.81-2.23.5-3.25-.1-.34-.3-.62-.62-.79-.36-.18-.69.36-.32.55.76.38.27,1.86.11,2.45-.46,1.62-1.2,3.15-1.98,4.64-1.8,3.47-3.94,6.84-6.38,9.89-1.69,2.11-3.58,4.05-6.43,4.33-2.03.2-3.04-1.27-3.21-3.13-.22-2.27.4-4.64,1.23-6.73.73-1.86,1.8-4.1,3.54-5.23,1.83-1.19,3.07.56,3.7,2.16.12.31.28.6.18.9-.16.52-.88,1.18-1.2,1.63-.64.91-1.26,1.83-1.83,2.78-.82,1.35-1.65,2.79-2.11,4.31-.18.57-.49,1.63.2,2.01.78.42,1.91-.56,2.45-.99.89-.7,1.71-1.49,2.51-2.29,1.06-1.07,2.25-2.16,3.07-3.44,1.8-2.8,3.2-5.81,4.55-8.85.67-1.52,1.34-3.05,2.04-4.56.17-.37-.38-.69-.55-.32Z"/>
        <path class="cls-20" d="M185.3,183.72c-.11.09-.22.18-.34.27l.48.27c-.02-.31-.09-.63-.07-.93.03-.48.07-.96.14-1.43.13-.83.37-1.66.66-2.44.61-1.66,1.76-2.95,2.89-4.28l-.22.09c.21.02.36.03.56.02.16-.01.35-.02.5.05.34.15.31.57.29.88-.07,1.01-.48,1.89-.98,2.76-.59,1-1.26,1.99-1.98,2.9-.46.58-1.06,1.45-1.78,1.75-.37.15-.21.77.17.61.88-.36,1.54-1.25,2.11-1.97.86-1.1,1.7-2.29,2.34-3.53.47-.91.9-2,.75-3.04-.05-.37-.22-.7-.55-.89-.29-.16-.9-.28-1.19-.07l.24-.03c-.16-.03-.4-.11-.57-.06-.19.05-.31.28-.43.43-.34.41-.68.81-1.02,1.22-.62.73-1.13,1.54-1.51,2.42s-.67,1.83-.85,2.77c-.1.54-.13,1.08-.18,1.63-.04.4.02.76.05,1.16.01.21.27.43.48.27.16-.12.31-.24.46-.37.31-.26-.14-.71-.45-.45Z"/>
      </g>
    </g>
    <g>
      <path class="cls-20" d="M204.07,163.63c-1.71,6.09,5.32-1.54,8.59-1.52.24,2.51-6.81,4.62-8.61,5.99-8.14,26.71,9.36,5.48,2.14,14.96-5.77,5.42-7.01-5.85-5.14-9.58.28-5.25,1.37-4.25-3.73-2.69-1.49.1-6.41,1.01-3.9-1.68,7.5,1.05,9.85-4.07,10.05-10.44,1.04-7.97,4.88-.69.61,4.95Z"/>
      <path class="cls-20" d="M203.76,163.55c-.18.68-.59,1.95.05,2.53.53.48,1.36.11,1.9-.15,2.19-1.03,4.42-3.43,6.94-3.5l-.32-.32c.06,1.96-3.53,3.25-4.94,3.91-.86.41-1.73.79-2.57,1.23-.3.16-.71.32-.94.57-.38.41-.46,1.22-.61,1.76-.66,2.3-1.26,4.63-1.58,7-.17,1.29-.31,2.67-.02,3.96.76,3.38,4,1.48,5.9.4.08-.05.37-.2.37-.2.14-.75-.39-.08-.44-.03-.77.73-1.14,1.81-1.98,2.51-4.02,3.35-5.08-3.26-4.96-6.02.04-.89.15-1.79.4-2.65.09-.31.27-.6.34-.91.13-.52.1-1.12.15-1.66.06-.6.61-2.4-.24-2.73-.35-.14-.84.11-1.15.23-.94.34-1.91.83-2.9,1.01-.77.14-1.61.19-2.39.21-.39.01-.9.07-1.28-.07-.52-.18-.6-.72-.07-1.07.47-.31,1.78.02,2.35,0,.61-.03,1.23-.11,1.82-.26.97-.24,1.88-.67,2.66-1.29,1.76-1.38,2.66-3.54,3.1-5.68.3-1.45.27-2.92.51-4.37.09-.55.5-2.98,1.34-2.26.68.58.53,2.32.45,3.08-.18,1.72-.88,3.3-1.88,4.68-.24.33.31.65.55.32,1.45-1.99,2.36-4.59,1.91-7.07-.15-.86-.84-2.53-1.93-1.6-.69.59-.9,1.86-1.05,2.68-.24,1.35-.2,2.73-.46,4.09-.45,2.43-1.49,4.92-3.75,6.17-1.24.69-2.68.91-4.09.87-.47-.01-1.32-.28-1.74-.09-.28.13-.62.7-.73.98-.65,1.59,1.66,1.55,2.6,1.5.85-.05,1.78-.09,2.6-.32.96-.27,1.86-.71,2.81-1.01.67-.21.51-.07.45.64-.09.99-.08,2.13-.38,3.07-.57,1.8-.79,3.59-.63,5.48.14,1.62.46,3.57,1.62,4.8,2.3,2.45,5.11-.87,6.35-2.78.18-.28.6-.84.12-1.06-.33-.16-.83.27-1.08.42-.97.59-2.45,1.68-3.66,1.28-.79-.26-1.02-1.18-1.12-1.91-.24-1.83.14-3.77.51-5.56.31-1.49.69-2.96,1.11-4.43.18-.65.24-1.44.79-1.84.4-.3.92-.5,1.37-.72,2.03-.98,4.4-1.81,6.06-3.4.53-.51.95-1.12.92-1.88,0-.17-.14-.32-.32-.32-1.91.06-3.72,1.47-5.27,2.44-.76.47-1.63,1.14-2.51,1.36-1.2.3-.7-1.16-.5-1.87.11-.4-.51-.56-.61-.17Z"/>
    </g>
    <g>
      <path class="cls-20" d="M219.17,166.63c1.96-6.81,6.46,6.85,7.5-12.39.24.19.29-1.62.35-1.5-.15-6.63,4.41-9.68,2.05-1.25.67,3.24-5.51,14.29.41,13.63,15.05-.01,7.79,7.01-1.62,9.19-.09.27-.47,0-.61.03-.1.02-.29.58-.38.25-1.24,11.47-3.34-1.41-2-7.48-1.52-.1-3.92-.23-5.71-.47ZM233.37,167.28c-3.39-.09-7.92-1.77-6.74,2.86-2.82,6.53,14.09-3.39,6.74-2.86Z"/>
      <g>
        <path class="cls-20" d="M219.48,166.71c.22-.72.54-1.79,1.43-1.87.58-.05,1.17.29,1.71.44,1.87.51,2.76-.91,3.25-2.54.83-2.72.96-5.69,1.12-8.51l-.4.31c.3.04.39-.09.52-.34.09-.17.09-.41.11-.6.03-.18.17-.72-.04-.61.1-.05.16-.16.16-.27-.02-1.72.11-4.49,1.48-5.8.43-.42.53-.17.6.38.15,1.22-.26,2.54-.55,3.7-.15.61-.04,1.23-.13,1.87-.12.88-.36,1.75-.59,2.6-.49,1.79-1.08,3.56-1.39,5.4-.2,1.17-.43,2.69.32,3.73.93,1.3,3.03.81,4.36.87,2.01.1,8.64.74,5.5,4.1-1.32,1.41-3.19,2.35-4.95,3.08-1.11.46-2.26.84-3.43,1.15-.38.1-.83.14-1.16.23-.38.1-.35.13-.66.43l.5.06-.08-.1c-.2-.26-.56-.16-.59.16-.04.36-.25,4.17-.92,4.29.1-.02-.2-.61-.25-.8-.15-.52-.24-1.07-.32-1.61-.45-3.01-.51-6.29.12-9.27.04-.21-.09-.39-.31-.4-1.91-.12-3.82-.22-5.71-.47-.4-.05-.4.58,0,.64,1.9.24,3.8.35,5.71.47l-.31-.4c-.42,1.97-.49,4.01-.43,6.02.05,1.71.15,3.54.63,5.2.15.53.53,1.63,1.26,1.13.35-.24.48-.84.58-1.2.32-1.16.44-2.38.57-3.57l-.59.16.08.1c.12.16.34.22.5.06.25-.24.41-.16.72-.22.55-.12,1.16-.36,1.71-.52,1.08-.32,2.14-.71,3.17-1.17,1.68-.75,3.46-1.69,4.7-3.08.7-.79,1.3-1.89.72-2.92-.8-1.41-2.99-1.74-4.42-1.94s-3.01-.26-4.51-.23c-.91.02-1.65-.19-1.94-1.14-.56-1.84.35-4.22.85-5.99s1.26-3.72,1.26-5.6c0-1.15.41-2.25.55-3.4.08-.66.23-1.65-.16-2.26-.83-1.26-1.98.72-2.27,1.38-.49,1.12-.73,2.35-.82,3.57-.03.33.05.85.03,1.07,0,0-.07.14-.08.25-.02.17-.04.34-.06.51-.01.1-.02.2-.03.3-.07.48-.18.37.16.42-.21-.03-.39.08-.4.31-.17,2.96-.18,6.4-1.39,9.17-.42.96-1,1.55-2.07,1.29-.73-.18-1.45-.61-2.23-.46-1.08.2-1.52,1.38-1.8,2.31-.12.39.5.56.61.17Z"/>
        <path class="cls-20" d="M233.37,166.96c-1.42-.04-2.82-.33-4.24-.37-1.06-.02-2.36.13-2.83,1.24-.31.75-.16,1.63.03,2.39l.03-.24c-.36.84-.7,2.15.41,2.59.94.37,2.14-.05,3.03-.38,1.26-.47,2.47-1.11,3.58-1.87.76-.52,1.81-1.21,2.12-2.13.43-1.25-1.37-1.28-2.13-1.23-.41.03-.41.66,0,.64.2-.01.41-.02.61-.02.08,0,.17,0,.25.01.08,0,.16.02.18.02.12.02.25.05.36.09-.08-.03.04.02.07.04.07.05-.02-.03.05.04.06.06-.02-.05.02.03.02.04,0-.06.01.04,0-.02,0-.04,0,.03s.02-.05,0,.05c-.03.11-.17.35-.25.45-.89,1.1-2.26,1.87-3.51,2.51-.69.35-1.41.67-2.16.9-.58.18-1.2.33-1.73.26-.05,0-.21-.04-.3-.08.05.02-.03-.01-.07-.04-.02-.01-.04-.02-.05-.04-.04-.02.04.03-.02-.02-.04-.03-.08-.09-.05-.05-.03-.04-.05-.08-.08-.13.02.05-.01-.04-.02-.09-.03-.11-.02-.05-.02-.11-.02-.31.04-.54.15-.86.1-.29.18-.45.11-.76-.08-.35-.14-.71-.13-1.07,0-.45.12-.91.49-1.19s.86-.34,1.31-.37c1.28-.07,2.57.19,3.84.3.32.03.65.05.97.06.41.01.41-.62,0-.64Z"/>
      </g>
    </g>
    <g>
      <path class="cls-20" d="M245.41,169.99c10.9-11.95,12.67-11.47,1.41.41-10.13,9.57-5.12-4.26-4.56-9.57.25-.74-.09-1.71-.1-2.53.45-.29,1.88-1.48,1.79.13,3.48,2.5-6.06,16.75,1.47,11.56ZM247.35,148.02c.64,2.05-2.63,3.43-3.12.82.72-.87,2.06-2.2,3.12-.82Z"/>
      <g>
        <path class="cls-20" d="M245.64,170.21c1.74-1.9,3.5-3.79,5.33-5.6.96-.95,1.93-1.96,3.03-2.77.11-.08.24-.15.35-.23.06-.04.06-.02.06-.03-.03.06-.2-.24-.26-.25,0,0-.01.04-.06.13-.09.16-.18.31-.28.46-.84,1.25-1.87,2.39-2.86,3.52-1.73,1.97-3.46,4.01-5.43,5.73-.68.59-1.38,1.16-2.16,1.63-.43.26-.93.54-1.45.58-1.82.13-.9-4.09-.75-4.97.27-1.58.62-3.15.94-4.73.14-.68.27-1.36.37-2.04.05-.36.12-.71.17-1.07.11-.75-.13-1.51-.17-2.26l-.16.27c.31-.2.62-.48.98-.6.19-.06.23-.09.32.1.13.28-.02.41.2.65.33.37.51.72.58,1.22.18,1.37-.26,2.83-.64,4.14-.41,1.44-.92,2.85-1.31,4.29-.2.74-.63,1.99-.12,2.7.75,1.04,2.59-.37,3.25-.81.34-.23.02-.78-.32-.55-.38.26-2.02,1.47-2.41,1-.35-.43.09-1.7.23-2.21.67-2.47,1.76-4.9,1.96-7.48.08-1.04-.03-2.21-.93-2.88l.16.27c.03-.93-.54-1.37-1.39-.95-.27.13-.75.36-.94.6-.32.41.1,1.56.1,2.02,0,.79-.21,1.66-.36,2.44s-.32,1.61-.49,2.42c-.34,1.64-.7,3.29-.88,4.96-.12,1.06-.29,2.47.3,3.43s1.75.69,2.6.26c2.3-1.15,4.12-3.25,5.83-5.1,1.62-1.76,3.25-3.53,4.71-5.43.22-.29,1.56-1.75.81-2.09-.32-.14-.7.18-.93.36-.63.47-1.21,1.01-1.78,1.54-2.33,2.19-4.51,4.54-6.66,6.9-.28.3.17.75.45.45Z"/>
        <path class="cls-20" d="M247.04,148.11c.06.21.08.29.07.5,0,.04,0,.07,0,.11,0,.09,0-.04,0,.01,0,.02,0,.04,0,.05-.02.08-.04.16-.07.24,0,0-.03.08-.01.04s-.02.03-.02.03c-.02.03-.03.06-.05.09-.02.03-.04.07-.06.1-.01.02-.09.13-.05.07-.05.06-.1.11-.15.16-.03.03-.06.05-.09.08-.01.01-.03.02-.04.03-.06.05.04-.03-.02.01-.06.04-.13.09-.19.12-.03.02-.07.04-.1.05-.02,0-.04.02-.06.03.05-.02.01,0-.02,0-.07.02-.13.05-.2.06-.04,0-.07.02-.11.02-.02,0-.03,0-.05,0,.08-.01,0,0-.01,0-.07,0-.15,0-.22,0-.02,0-.03,0-.05,0-.08,0,.05,0,0,0-.04,0-.08-.01-.12-.02-.04,0-.07-.02-.1-.03-.02,0-.03-.01-.05-.02-.07-.03.04.02,0,0-.07-.04-.14-.07-.2-.12-.05-.03,0,0,0,0-.02-.02-.04-.03-.06-.05-.04-.03-.07-.07-.1-.11-.02-.02-.03-.03-.04-.05.03.04,0,0-.01-.02-.03-.05-.06-.09-.09-.14-.11-.19-.17-.39-.22-.64l-.08.31c.37-.44.78-.9,1.3-1.17.11-.06.21-.1.34-.13.1-.02.23-.03.31-.02.31.04.53.26.72.5.11.14.34.11.45,0,.13-.13.11-.31,0-.45-.31-.39-.73-.67-1.23-.69-.44-.01-.86.18-1.21.43s-.69.57-.98.91c-.06.07-.15.15-.2.24-.08.13-.03.29,0,.43.05.19.12.38.21.55.29.55.84.91,1.47.93.57.01,1.15-.25,1.54-.66.51-.53.69-1.28.47-1.99-.12-.39-.73-.22-.61.17Z"/>
      </g>
    </g>
    <g>
      <path class="cls-20" d="M251.8,166.69c-1.43-5.03,10.53-19.22,10.51-7.86-13.05,12.59-5.81,12.11,4.42,2.38-.13-.1.06-.14.15-.15h-.04c1.26-1.21,5.02-6.38,3.74-2.47-2.84,3.32-6.43,7.24-9.99,9.57.03.03-.84.24-.58.42-2.9,1.64-8.24,3.57-8.21-1.89ZM259.18,156.56c-1.8,1.85-4.06,3.6-4.61,6.42-1.61,5.09,2.76-.64,3.53-1.42,1.83-1.76,4.19-4.4,1.08-5ZM266.84,161.07v-.04s0,.04,0,.04Z"/>
      <g>
        <path class="cls-20" d="M252.11,166.6c-.33-1.25.12-2.62.59-3.77.63-1.55,1.53-3.01,2.57-4.32.91-1.16,4.23-5.15,5.94-3.18.42.48.58,1.18.68,1.8.06.38.22,1.11.11,1.48-.1.34-.58.66-.81.89-.32.32-.64.64-.95.96-1.55,1.59-3.11,3.24-4.33,5.1-.42.64-1.18,1.74-.88,2.57.25.7,1.08.64,1.67.5,1.49-.36,2.89-1.3,4.14-2.15,2.19-1.49,4.21-3.23,6.13-5.05.11-.1.11-.26.05-.39l-.04-.08-.11.43.11-.03-.17-.61h-.04c.1.18.21.36.31.54.95-.94,1.74-2.02,2.66-2.99.21-.22.45-.42.66-.64.07-.07.18-.11.26-.18.08-.07-.07-.16-.12-.01-.14.41-.11.73-.37,1.12-.33.51-.84.97-1.24,1.43-1.75,1.98-3.58,3.9-5.58,5.63-.9.78-1.88,1.69-2.95,2.24-.32.16-.99.35-.65.84l.11-.43c-1.43.8-3.05,1.55-4.71,1.66-2.12.14-3-1.29-3.02-3.27,0-.41-.64-.41-.64,0,.02,1.97.83,3.76,3,3.91,1.97.13,4.01-.81,5.69-1.75.14-.08.21-.3.11-.43-.11.25-.06.3.15.14.07-.03.14-.05.21-.08.17-.09.32-.19.48-.3.53-.36,1.05-.75,1.56-1.15,1.24-.98,2.41-2.06,3.52-3.17s2.14-2.22,3.16-3.38c.74-.84,1.58-1.54,1.76-2.69s-.72-1-1.37-.41c-1.16,1.05-2.03,2.37-3.13,3.47-.24.24.01.59.31.53h.04c.4-.08.23-.69-.17-.62-.11.02-.17.04-.27.1-.16.09-.19.28-.11.43l.04.08.05-.39c-1.81,1.71-3.7,3.35-5.75,4.77-1.23.86-2.59,1.78-4.05,2.21-.75.22-1.31.2-1.01-.7.55-1.62,1.95-3.06,3.05-4.31,1.04-1.17,2.13-2.29,3.25-3.38.47-.46.63-.54.62-1.18-.01-.45-.05-.9-.12-1.34-.16-1.04-.55-2.3-1.63-2.7-2.27-.85-4.82,2.15-6.01,3.65-1.11,1.4-2.07,2.94-2.75,4.59-.53,1.29-.98,2.79-.62,4.18.1.4.72.23.61-.17Z"/>
        <path class="cls-20" d="M258.96,156.34c-1.56,1.59-3.36,3.07-4.26,5.17-.23.55-.36,1.12-.53,1.69-.11.39-.22.78-.26,1.19s.03.99.56,1c.44,0,.85-.38,1.16-.66.48-.43.91-.9,1.33-1.38.38-.43.75-.87,1.12-1.3.5-.57,1.07-1.07,1.56-1.64.59-.68,1.28-1.53,1.36-2.47.08-1.03-.87-1.51-1.74-1.68-.4-.08-.57.53-.17.61.58.12,1.36.35,1.27,1.09s-.68,1.42-1.14,1.96-1.01,1.03-1.5,1.56c-.31.35-.61.71-.92,1.06-.38.44-.77.88-1.18,1.29-.31.31-.63.66-1.03.86-.05.03-.07,0-.14.05.03-.02.04,0,.09.03,0,0-.02.03,0-.02,0,.05,0,0,0-.04,0-.04,0,0,0-.07,0-.05,0-.11,0-.16.02-.33.11-.66.2-.97.14-.49.24-.99.42-1.46.79-2.17,2.68-3.68,4.25-5.28.29-.29-.16-.74-.45-.45Z"/>
        <path class="cls-20" d="M267.15,161.07v-.04s0-.08-.03-.12c-.01-.04-.03-.07-.07-.1-.03-.03-.06-.05-.1-.07-.04-.02-.08-.03-.12-.03h-.08c-.05.03-.1.05-.14.09l-.05.06s-.04.1-.04.16v.04s0,.08.03.12c.01.04.03.07.07.1.03.03.06.05.1.07.04.02.08.03.12.03h.08c.05-.03.1-.05.14-.09l.05-.06s.04-.1.04-.16v-.04s0-.08-.03-.12c-.01-.04-.03-.07-.07-.1-.03-.03-.06-.05-.1-.07-.04-.02-.08-.03-.12-.03h-.08c-.05.03-.1.05-.14.09l-.05.06s-.04.1-.04.16v.04s0,.08.03.12c.01.04.03.07.07.1.03.03.06.05.1.07.04.02.08.03.12.03h.08c.05-.03.1-.05.14-.09l.05-.06s.04-.1.04-.16Z"/>
      </g>
    </g>
    <g>
      <path class="cls-20" d="M283.58,162.32c2.27-1.97,5.29-5.36,6.58-7.12,2.08-2.27,3.45-5.9,5.55-7.97,3.68.16-9.1,13.87-10.5,15.76-7,6.67-5.96-3.99-5.47-8.55-2.92,2.08-3.79,6.54-6.39,8.97.24.53-.36,1.43-.61,1.79-2.18,5.24-5.58.58-3.69-3.39,2.93-16.78,6.44-7.94,1.59,2.01,3.29-.76,6.24-12.49,11.31-12.2,1.82,1.81-3.84,13.84,1.63,10.71Z"/>
      <path class="cls-20" d="M283.81,162.55c3.9-3.43,7.1-7.49,9.8-11.9.26-.43,1.84-3.21,2.28-3.06.3.11.14.57.08.79-.33,1.22-1.23,2.37-1.94,3.38-2.06,2.91-4.41,5.61-6.74,8.31-.73.84-1.43,1.7-2.16,2.54-.78.89-2.79,2.83-4.15,2.05s-1.25-3.35-1.27-4.64c-.02-1.86.16-3.72.35-5.57.02-.23-.29-.41-.48-.27-2.9,2.18-3.63,5.92-5.99,8.54-.65.72-.46.98-.86,1.91-.34.78-.88,1.94-1.64,2.39-1.75,1.05-2.35-2.07-2.27-3.16.07-1,.51-1.91.7-2.89.2-1.07.42-2.13.68-3.19.33-1.35.69-2.75,1.31-4.01.14-.27.52-1.17.88-.99.41.21.34,1.58.34,1.92,0,3.08-1.04,6.21-2.36,8.96-.12.24.08.54.36.47,1.79-.49,2.9-2.77,3.76-4.22,1.38-2.33,2.64-5,4.7-6.82.48-.42,2.22-1.71,2.72-.93.4.64.02,2.1-.08,2.76-.34,2.07-1.03,4.18-1.01,6.29.02,2,1.34,2.27,2.93,1.39.36-.2.04-.75-.32-.55-.68.37-1.62.86-1.91-.14-.26-.88.02-2.02.17-2.9.35-2,1.04-4.09.96-6.14-.02-.45-.07-1.27-.53-1.53-.62-.35-1.85.24-2.37.55-2.04,1.2-3.36,3.53-4.53,5.51-.74,1.25-1.44,2.54-2.25,3.75-.58.88-1.32,2.06-2.41,2.36l.36.47c1.39-2.89,2.5-6.2,2.45-9.45-.01-.86-.38-3.39-1.74-2.09-.78.74-1.13,2.07-1.44,3.05-.75,2.36-1.13,4.81-1.79,7.19-.4,1.44-.31,3.36.75,4.51.89.97,2.09.76,2.91-.18.68-.77,1.34-1.99,1.63-2.98.12-.42.07-.51.36-.86.38-.47.75-.92,1.08-1.42,1.54-2.36,2.46-5.26,4.78-7.01l-.48-.27c-.2,1.93-.39,3.86-.35,5.8.03,1.43.07,3.3,1.03,4.47,2.07,2.51,5.39-1.61,6.7-3.13,2.57-2.99,5.19-5.95,7.51-9.15.33-.45,4.01-5.51,1.54-5.5-.9,0-1.96,2.06-2.38,2.73-1.04,1.64-1.93,3.4-3.17,4.91-2.17,2.64-4.35,5.26-6.93,7.52-.31.27.14.72.45.45Z"/>
    </g>
    <g>
      <path class="cls-20" d="M297,142.25c2.19-7.87,6.61-5.85,2.61,1.16,1.95-.21,9.26-2.83,8.29-.32-7.43.38-11.04,2.97-12.74,9.81-1.18,1.24-4.17,11.32-.72,8.41,13.19-12.93,19.1-17.33,2.47,0-17.69,13.38,11.36-27.37-9.77-11.66-2.62-5.99,10.1-2.9,9.86-7.4Z"/>
      <path class="cls-20" d="M297.31,142.33c.36-1.27.81-2.55,1.56-3.64.27-.39,1.02-1.43,1.63-1.14s.41,1.47.33,1.93c-.23,1.34-.84,2.59-1.5,3.77-.11.19.02.51.27.48,1.48-.18,2.93-.67,4.38-1,.56-.13,4.04-1.01,3.6.28l.31-.23c-2.71.15-5.54.55-7.89,1.99-2.03,1.24-3.42,3.18-4.3,5.36-.41,1.02-.58,2.12-1.13,3.06-.43.73-.72,1.56-.99,2.35-.57,1.66-1.32,3.78-1.04,5.57s1.89.66,2.69-.12c2.16-2.11,4.34-4.21,6.55-6.26,1.39-1.29,2.79-2.6,4.27-3.79.14-.11.93-.54.98-.7,0-.02-.27-.28-.3-.27-.07.02-.24.37-.29.44-1.11,1.54-2.48,2.93-3.77,4.33-1.19,1.29-2.39,2.57-3.59,3.84-1.14,1.2-2.21,2.42-3.57,3.37-.6.42-3.8,2.87-4.26,1.29-.2-.69.06-1.59.23-2.26.27-1.09.64-2.16,1.02-3.22.84-2.37,1.81-4.7,2.5-7.12.34-1.2,1.14-3.53.04-4.58-1.4-1.34-4.32.77-5.47,1.51-.88.57-1.74,1.18-2.59,1.81l.47.19c-2.39-5.73,10-2.25,9.87-7.32-.01-.41-.65-.41-.64,0,.03,1.33-1.25,1.85-2.34,2.16-1.36.39-2.77.55-4.14.86-1.08.24-2.33.55-3.12,1.38-.83.87-.67,2.06-.24,3.09.07.17.28.33.47.19,1.48-1.09,3-2.19,4.65-3,.62-.3,1.72-.88,2.43-.55,1.21.57.23,3.28-.01,4.14-.69,2.4-1.65,4.72-2.49,7.07-.59,1.65-1.53,3.73-1.29,5.53s2.04,1.23,3.17.66c1.69-.86,3.18-2.03,4.49-3.4,2.25-2.35,4.49-4.72,6.65-7.15.57-.64,1.13-1.28,1.66-1.94.25-.31.6-.66.74-1.04.29-.76-.42-.69-.88-.39-1.16.75-2.19,1.77-3.21,2.69-1.96,1.76-3.87,3.57-5.76,5.39-.56.54-1.12,1.08-1.68,1.63s-1.17,1.33-1.87,1.75c-.75.45-.77-.23-.76-.87.04-1.98.73-4.08,1.48-5.89.28-.68.76-1.29.94-1.99.37-1.4.87-2.77,1.61-4.02,1.37-2.31,3.53-3.77,6.09-4.47,1.51-.41,3.07-.59,4.63-.67.15,0,.26-.09.31-.23.56-1.63-1.54-1.53-2.55-1.4-2.05.27-4,1.06-6.04,1.31l.27.48c.79-1.42,1.58-3.02,1.66-4.68.03-.68-.08-1.61-.79-1.93s-1.44.24-1.9.73c-1.13,1.21-1.71,2.91-2.16,4.47-.11.39.5.56.61.17Z"/>
    </g>
    <g>
      <path class="cls-20" d="M306.14,150.42c.95-4.77,6.1-1.55,9.07-.35,3.9-.73,1.57,4.84-.06,5.96-9.46,11.86-13.84,7.79-9.01-5.61ZM321.44,143.6c-2.78,1.05-3.89-3.13-5.16-5.27-2.15-1.42-6.22,4.44-8.53,5.46-4.13,1.83-2.01-2.23.57-3.05,3.61-1.02,6.57-7.73,9.84-5.78-.14.16.15.44-.12.52.13,2.86,2.88,5.35,3.4,8.12ZM312.94,150.66c-4.7-.53-5.02,4.02-6.94,7.42-1.76,9.54,13.28-5.58,6.94-7.42Z"/>
      <g>
        <path class="cls-20" d="M306.45,150.5c.16-.74.44-1.53,1.11-1.96.53-.34,1.18-.38,1.78-.31,1.54.16,3,.9,4.39,1.53.31.14.62.28.93.41.13.05.26.13.39.16.22.06.42,0,.64-.02.48-.03,1,.07,1.22.55.45,1.02-.23,2.48-.71,3.36-.27.49-.59.97-1,1.35-.73.67-1.32,1.51-1.98,2.25-1.23,1.38-2.55,2.73-4.08,3.78-.82.56-1.86,1.19-2.9,1.1-.75-.07-1.23-.63-1.47-1.3-.47-1.31-.33-2.84-.13-4.19.34-2.3,1.02-4.54,1.8-6.72.14-.39-.48-.55-.61-.17-.76,2.13-1.43,4.32-1.78,6.56-.22,1.41-.36,2.93,0,4.34.23.88.74,1.74,1.66,2.02,1.01.31,2.11-.13,2.99-.62,1.59-.89,2.96-2.2,4.2-3.51.43-.45.85-.92,1.25-1.39s.79-1.06,1.25-1.49.83-.84,1.16-1.36c.67-1.08,1.3-2.54,1.06-3.84-.1-.53-.42-.98-.92-1.2-.3-.13-.63-.17-.96-.15-.16,0-.36.07-.51.05-.17-.02-.37-.16-.53-.23-2.22-.98-6.72-3.59-8.41-.47-.22.41-.36.85-.45,1.3-.08.4.53.57.61.17Z"/>
        <path class="cls-20" d="M321.35,143.29c-1.46.51-2.4-.6-3.08-1.76-.36-.61-.66-1.25-.96-1.89-.23-.47-.45-1.25-.87-1.59-.71-.58-1.81-.14-2.49.24-1.12.64-2.07,1.57-3,2.45s-1.82,1.84-2.9,2.52c-.33.2-2.5,1.26-2.28.24.21-.96,1.29-1.82,2.11-2.24.52-.27,1.09-.39,1.61-.68.55-.31,1.06-.71,1.53-1.12,1.2-1.04,2.22-2.26,3.42-3.29,1-.86,2.26-1.67,3.55-.93l-.15-.36c-.06.16,0,.25-.03.4.02-.13-.05-.02-.06.05-.06.34,0,.67.06,1.02.16.81.5,1.58.88,2.31.86,1.65,2.04,3.18,2.42,5.03.08.4.7.23.61-.17-.6-2.88-3.19-5.04-3.39-8.03l-.16.27c.34-.24.14-.39.27-.71.05-.13-.03-.29-.15-.36-2.53-1.43-4.87,1.51-6.45,3.1-1.08,1.08-2.18,2.14-3.64,2.65-1.1.39-2.09,1.15-2.72,2.14-.37.59-.73,1.64.17,1.95,1.04.35,2.44-.48,3.23-1.09,1.16-.89,2.18-1.97,3.26-2.95.85-.77,2.1-2.06,3.34-2.05.73,0,.93.9,1.2,1.46.39.8.76,1.62,1.25,2.37.82,1.25,2,2.19,3.55,1.65.38-.13.22-.75-.17-.61Z"/>
        <path class="cls-20" d="M312.94,150.34c-1.62-.17-3.15.29-4.21,1.57s-1.53,2.8-2.16,4.25c-.16.38-.33.76-.52,1.13s-.36.65-.42,1.05c-.07.5-.13,1-.08,1.5.06.66.32,1.36.99,1.6.63.22,1.33-.02,1.89-.3.81-.39,1.53-.95,2.2-1.55,1.51-1.35,2.89-3.03,3.69-4.9.59-1.38.89-3.29-.71-4.11-.19-.1-.39-.17-.59-.23-.39-.12-.56.5-.17.61.62.18,1.09.54,1.26,1.11.18.61.02,1.32-.2,1.94-.61,1.71-1.82,3.25-3.09,4.52-.62.62-1.29,1.2-2.03,1.67-.52.33-1.15.66-1.7.67-.24,0-.35-.01-.54-.15.05.04-.05-.05-.07-.07-.07-.07-.03-.02-.08-.11-.08-.13-.1-.18-.14-.32-.1-.35-.11-.71-.09-1.08.01-.25.04-.5.08-.75.06-.35.27-.65.42-.97.66-1.37,1.13-2.83,1.88-4.16.69-1.21,1.68-2.18,3.12-2.33.42-.05.84-.03,1.26.01s.4-.59,0-.64Z"/>
      </g>
    </g>
    <g>
      <path class="cls-20" d="M328.14,140.01c-2.93,5.74,5.27-.4,8.49.24-.57,2.86-8.17,3.19-10.33,4.71-10.52,24.17,6.95,7.65-.24,15.15-13.32,4.08,4.9-18.89-5.85-14.29-1.4-.11-6.34-.51-3.37-2.49,7.16,2.67,10.27-2.38,11.75-8.43,2.74-7.86,4.68.5-.45,5.11Z"/>
      <path class="cls-20" d="M327.87,139.85c-.32.64-1,1.81-.52,2.54.39.59,1.22.42,1.8.28,2.34-.56,4.93-2.51,7.41-2.11l-.22-.39c-.53,2.08-4.15,2.6-5.87,3.04-1.05.27-2.11.51-3.12.9-1.14.43-1.35.77-1.83,1.91-1.03,2.45-2.02,4.97-2.62,7.57-.28,1.21-.55,2.58-.26,3.81.35,1.51,1.62,1.91,3.01,1.6.57-.13,1.11-.36,1.65-.55.08-.03.47-.14.48-.16,0,.02-.24-.3-.23-.3-.04,0-.12.2-.16.23-.31.26-.57.66-.85.96-.62.67-1.18.87-2.08,1.02-1.01.17-2.39.25-2.93-.82-.48-.95-.2-2.27.02-3.25.3-1.35.75-2.66,1.19-3.97s.88-2.52,1.17-3.82c.18-.8.4-1.81.04-2.59-.33-.71-1.05-.88-1.78-.81-.65.07-1.21.39-1.83.53-.88.19-2.07-.11-2.92-.34-.34-.09-1.15-.26-1.15-.73,0-1.04,1.89-.29,2.31-.21,1.11.23,2.25.3,3.37.07,2.17-.44,3.81-1.98,4.91-3.83.64-1.06,1.11-2.22,1.5-3.4.47-1.42.73-2.9,1.53-4.19.52-.84,1.02-1.08,1.15.05.12,1.05-.16,2.17-.53,3.14-.55,1.45-1.43,2.72-2.56,3.77-.3.28.15.73.45.45,1.84-1.71,3.18-4.14,3.29-6.69.04-.85-.25-2.82-1.54-2-.76.48-1.16,1.58-1.48,2.36-.63,1.55-.92,3.2-1.61,4.74-1.17,2.61-3.14,4.91-6.17,5.09-.83.05-1.67-.06-2.47-.26-.49-.12-1.21-.56-1.69-.42-.61.18-1.28,1.09-1.02,1.72s1.27.87,1.88,1.01c.78.18,1.9.47,2.7.34s2.43-1.25,3.07-.19c.49.81-.05,2.28-.28,3.09-.78,2.79-2.13,5.54-2.39,8.45-.08.96-.01,2.09.74,2.79.87.81,2.22.7,3.3.51.93-.17,1.49-.34,2.13-1.02.33-.35.68-.7.97-1.08.25-.31.64-.86.03-1.04-.37-.1-1,.29-1.32.41-.62.22-1.3.47-1.97.41-2.67-.23-.93-5.32-.53-6.63.45-1.47.98-2.9,1.55-4.33.32-.79.57-2.01,1.26-2.51.43-.31,1.07-.44,1.57-.59,2.33-.71,4.98-.99,7.08-2.31.68-.42,1.25-.98,1.45-1.78.04-.15-.05-.36-.22-.39-1.87-.3-3.85.7-5.55,1.35-.81.31-1.72.76-2.6.84-1.29.13-.49-1.29-.15-1.97.18-.37-.37-.69-.55-.32Z"/>
    </g>
    <g>
      <path class="cls-20" d="M350.18,155.67c7.18-2.49,4.85-11.6,11.61-14.71,1.61-.46,5.4.52,3.97,2.87-2.28,3.25-8.26,5.16-8.44,9.32,2.26,7.72,12.23-9.07,9.87-2.57-1.94,3.07-5.59,6.24-8.51,5.99-2.07.28-3.01-1.54-3.39-3.27-5.96,7.26-14.37,5.89-10.81-4.5,2.48-6.73,5.92-19.49,12.51-20.46-.05.15.03.19.11.11,1.29,1.58-.17,3.91-.3,5.79-1.75,6.38-7.23,10.59-10.31,15.43-1.24,3.05-1.01,9.22,3.69,5.99ZM353.64,133.32c-3.03,3.49-10.07,19.04-2.85,9.17,1.82-2.39,7.33-12.92,2.85-9.17ZM361.65,142.86c-1.61,1.37-3.42,4.04-3.79,5.9,1.38-.7,10.1-8.12,3.79-5.9Z"/>
      <g>
        <path class="cls-20" d="M350.26,155.98c2.36-.86,3.99-2.54,5.09-4.77s1.75-4.89,3.2-7.05c.78-1.16,1.95-2.39,3.31-2.86,1.07-.37,3.26-.04,3.78,1.11.6,1.33-1.69,2.91-2.58,3.6-1.16.9-2.39,1.72-3.49,2.69-1.47,1.29-3.26,3.42-2.21,5.46.54,1.05,1.51,1.58,2.68,1.29,2.75-.68,4.76-3.62,6.69-5.49.16-.16.43-.32.56-.5s-.06-.2-.07-.19c-.11.21-.11.54-.19.78-.33.91-1.04,1.72-1.68,2.43-1.38,1.55-3.18,3.14-5.25,3.65-.93.23-2.19.33-3.02-.2-.89-.58-1.26-1.72-1.49-2.7-.05-.22-.38-.32-.53-.14-1.79,2.14-4.36,4.37-7.31,4.46-2.74.08-3.9-2.25-3.8-4.71.13-3.07,1.6-6.16,2.62-9.03,1.09-3.08,2.24-6.17,3.82-9.03,1.45-2.63,3.5-5.58,6.67-6.12l-.4-.31v.14c.02.2.2.37.41.31.03-.01.24,1.34.22,1.56-.03.58-.2,1.14-.35,1.7-.22.82-.35,1.66-.56,2.48-.5,1.9-1.53,3.69-2.63,5.31-2.08,3.06-4.74,5.66-6.88,8.68-1.27,1.8-1.77,4.45-1.08,6.58.75,2.31,2.84,1.95,4.54.83.34-.22.02-.77-.32-.55-1.02.67-2.54,1.45-3.37.09-.53-.88-.53-2.09-.45-3.07.24-3.15,2.58-5.36,4.52-7.67,2.09-2.48,4.19-5.01,5.51-8,.65-1.48.92-2.98,1.33-4.52.36-1.35.67-2.71-.19-3.93-.08-.11-.22-.19-.36-.15l-.11.03.4.31v-.14c-.02-.22-.2-.34-.41-.31-2.88.49-4.9,2.89-6.37,5.24-1.94,3.12-3.25,6.62-4.47,10.06-1.13,3.2-2.88,6.73-2.75,10.18.09,2.25,1.26,4.31,3.64,4.62,3.38.44,6.54-2.21,8.55-4.6l-.53-.14c.31,1.31.9,2.81,2.26,3.34,1.23.48,2.88.16,4.05-.34,1.69-.72,3.16-1.97,4.39-3.31.86-.94,1.77-1.96,2.09-3.22.21-.83-.12-1.43-.93-.83-1.17.86-2.09,2.13-3.13,3.13s-2.6,2.67-4.21,2.74c-.79.04-1.35-.51-1.64-1.21-.64-1.58.77-3.23,1.84-4.24,1.21-1.13,2.61-2.04,3.91-3.06.96-.76,2.32-1.74,2.7-2.98.69-2.28-2.76-3.22-4.41-2.81-2.89.72-4.56,4.09-5.56,6.58-1.36,3.37-2.53,6.81-6.24,8.17-.38.14-.22.75.17.61Z"/>
        <path class="cls-20" d="M353.41,133.09c-.72.83-1.3,1.78-1.86,2.72-.72,1.21-1.38,2.46-2.01,3.73-.58,1.17-1.12,2.36-1.6,3.58-.27.7-.64,1.52-.63,2.29s.66.71,1.12.35c1.02-.8,1.79-1.98,2.54-3,1.55-2.09,2.79-4.49,3.81-6.88.27-.62.53-1.26.71-1.91.11-.39.23-.86.13-1.26-.31-1.16-1.77.03-2.22.4-.31.26.14.71.45.45s.68-.58,1.08-.7c.12-.03.07,0,.06-.02,0-.05.02.08.02.15.02.36-.11.74-.22,1.08-.16.52-.37,1.03-.58,1.53-.96,2.22-2.12,4.46-3.51,6.45-.71,1.01-1.47,2.05-2.35,2.93-.11.11-.22.22-.35.32-.02.01-.08.06-.12.08-.07.04-.09.03-.09.04.01-.03.09.05.15.08.04.02-.02.04,0-.03-.01.06,0-.05,0-.1.04-.64.36-1.42.6-2.06.42-1.09.91-2.15,1.42-3.19.62-1.27,1.28-2.53,2-3.75.57-.97,1.15-1.95,1.89-2.8.27-.31-.18-.76-.45-.45Z"/>
        <path class="cls-20" d="M361.42,142.64c-.94.81-1.73,1.8-2.41,2.83-.64.98-1.23,2.06-1.46,3.21-.06.28.21.49.47.36.57-.29,1.09-.74,1.59-1.14.78-.62,1.53-1.27,2.25-1.95.66-.62,1.31-1.27,1.86-2.01.29-.39.76-1.06.39-1.54-.2-.26-.56-.29-.87-.27-.57.05-1.13.23-1.67.42-.38.13-.22.75.17.61.45-.16.93-.32,1.4-.38.08-.01.25-.02.37-.01.07,0-.05,0,0,0,.02,0,.05,0,.07.02,0,0,.03.02.02.01-.01-.01-.01-.05,0,0,0-.05-.01-.06,0-.01,0,0-.02-.07,0-.01,0,.02,0,.04,0,.06,0,0,.01-.06,0,0-.01.05-.03.1-.05.15-.02.06.02-.04,0,.02-.01.03-.03.06-.04.09-.03.06-.07.12-.1.18-.08.13-.17.26-.27.38-.5.65-1.12,1.26-1.72,1.83-.67.63-1.37,1.24-2.09,1.82-.51.41-1.03.87-1.62,1.17l.47.36c.23-1.1.79-2.12,1.4-3.06.65-.99,1.41-1.93,2.31-2.7.31-.27-.14-.72-.45-.45Z"/>
      </g>
    </g>
    <g>
      <path class="cls-20" d="M398.38,141.84c-6.91.95-12.07,24.23-14.84,3.89-.06-3.07-.58-10.3,3.45-6.01,1.42,1.29-1.73,3.8-1.44,5.13.37.37-.14.77-.21,1.03.3.2-.04.46.3.66-.2.05-.02.2-.21.2.6.44-.13.98.42,1.56-.42.53,1.44,6.29,2.18,2.62.66-.36.45-1.03,1.19-1.43-.22-.31.39-1.52.75-1.37-.03-.12.51-.89.47-.89,2.03-2.19,3.76-5.55,6.29-7.7,2.83-2.69,6.92,7.09,1.65,2.29Z"/>
      <path class="cls-20" d="M398.3,141.54c-2.39.36-4.13,2.74-5.43,4.56-1.54,2.15-2.79,4.59-4.57,6.56-.41.45-1.09,1.22-1.79,1.05-.89-.22-1.29-1.65-1.52-2.38-.63-1.97-1.09-4.18-1.14-6.25-.04-1.62-.15-3.31.17-4.91.1-.51.29-1.45.96-1.45.72,0,2.03,1.13,2.07,1.83.05.95-.89,1.96-1.33,2.74-.21.36-.42.76-.47,1.18-.02.15,0,.28,0,.43.04.43,0,.47-.17.84-.06.14-.05.27.05.39.16.18.08.45.3.66l.06-.5c-.07.05-.33.26-.21.2-.19.09-.2.37-.06.5.25.24.08.62.12.91.03.23.11.4.25.59v-.32c-.28.44-.03,1.22.09,1.67.2.74.46,1.57.94,2.17.32.4.81.66,1.23.23.29-.3.27-.7.45-1.04.09-.17.28-.28.39-.45.24-.36.29-.71.7-.96.16-.1.18-.27.11-.43-.05-.12.28-.92.39-.9.22.03.37-.08.4-.31.02-.18.31-.55.42-.7.22-.32.54-.62.79-.93.66-.83,1.27-1.7,1.89-2.56.68-.95,1.37-1.89,2.14-2.76.51-.57,1.15-1.43,1.89-1.71,1.43-.54,3.13,1.87,3.18,3.1.01.29,0,.31-.26.27-.62-.08-1.31-.83-1.74-1.22-.3-.27-.75.18-.45.45.51.46,2.09,2.05,2.88,1.23.59-.61-.07-1.85-.41-2.42-.53-.9-1.37-1.88-2.45-2.09-.51-.1-1,.03-1.42.33-1.03.74-1.88,1.81-2.65,2.8-.93,1.2-1.77,2.46-2.69,3.67-.54.71-1.63,1.6-1.76,2.55l.4-.31c-.81-.12-1.4,1.18-1.11,1.83l.11-.43c-.38.24-.57.52-.78.91-.22.43-.51.56-.64,1.03-.16.58-.27.85-.64.28-.33-.5-.53-1.11-.69-1.69-.08-.28-.35-1.04-.19-1.29.06-.09.06-.23,0-.32-.4-.54.08-1.11-.47-1.62l-.06.5c.09-.04.27-.24.21-.2.16-.11.22-.35.06-.5s-.12-.47-.3-.66l.05.39c.21-.47.43-.67.32-1.19s.13-.92.4-1.39c.47-.8,1.12-1.6,1.3-2.54.19-.98-.51-1.61-1.22-2.19-.48-.38-1.12-.8-1.76-.64-1.34.33-1.4,2.53-1.46,3.59-.11,2.07,0,4.13.35,6.17.3,1.77.61,3.79,1.56,5.36.43.71,1.12,1.31,2,1.06s1.62-1.15,2.18-1.86c.9-1.15,1.67-2.38,2.47-3.6.97-1.49,1.96-2.99,3.14-4.32.94-1.06,2.09-2.14,3.55-2.36.4-.06.23-.67-.17-.61Z"/>
    </g>
    <g>
      <path class="cls-20" d="M402.58,142.06c.37-1.57,3.31-3.97,4.26-1.44,3.12.65,4.88,1.65,6.85,3.14-.52,1.13-.65,3.68-2.13,4.07-.22.24-.91.81-.72.81-10.71,11.17-14.27,6.17-8.27-6.57ZM409.23,143c-4.62-.99-5.34,3.58-7.58,6.77-2.73,9.43,13.62-4.27,7.58-6.77ZM418.29,136.74c-2.87.76-3.49-3.57-4.52-5.84-1.94-1.66-6.58,3.84-8.94,4.63-4.25,1.46-1.67-2.51.87-3.01,3.41-.65,7.97-7.38,10.26-4.82-.16.15.1.46-.17.52-.19,2.82,2.25,5.68,2.49,8.53Z"/>
      <g>
        <path class="cls-20" d="M402.88,142.14c.22-.86.96-1.62,1.72-2.04.37-.2.84-.37,1.25-.21.21.09.37.25.49.44s.15.45.36.57c.26.15.7.16.99.23.35.09.69.19,1.04.3.61.2,1.21.43,1.79.71,1.07.51,2.05,1.17,3,1.89l-.11-.43c-.44,1.01-.51,2.16-1.05,3.13-.13.23-.28.45-.5.61-.19.14-.4.19-.58.33-.23.19-.81.62-.78.96.01.14.09.27.23.31h.03c-.05-.17-.09-.35-.14-.52-1.62,1.68-3.33,3.33-5.28,4.64-1.02.69-2.29,1.48-3.58,1.46-2.47-.04-1.77-3.88-1.44-5.34.54-2.41,1.48-4.72,2.53-6.94.17-.37-.38-.69-.55-.32-1.01,2.16-1.94,4.4-2.51,6.73-.35,1.43-.64,3.02-.31,4.48.21.93.79,1.77,1.77,1.98,1.24.26,2.56-.37,3.6-.98,2.34-1.36,4.35-3.31,6.22-5.25.17-.17.09-.47-.14-.53h-.03c.08.09.16.2.23.3.01.15.03.03.14-.08.1-.1.2-.19.3-.29.15-.14.28-.19.46-.28.42-.23.72-.63.93-1.04.49-.95.57-2.05,1-3.02.08-.17.04-.32-.11-.43-2.1-1.58-4.35-2.63-6.93-3.17l.22.22c-1.1-2.73-4.34-.57-4.87,1.44-.1.4.51.57.61.17Z"/>
        <path class="cls-20" d="M409.31,142.69c-1.61-.33-3.16-.05-4.35,1.14s-1.81,2.7-2.57,4.1c-.2.37-.42.75-.64,1.11-.21.34-.41.61-.5,1-.12.49-.22,1-.22,1.51,0,.64.18,1.35.8,1.66s1.31.13,1.9-.09c.84-.32,1.62-.81,2.34-1.34,1.63-1.22,3.17-2.77,4.15-4.58.73-1.34,1.18-3.2-.31-4.2-.18-.12-.37-.21-.57-.29-.38-.16-.54.46-.17.61.58.25.99.67,1.09,1.26s-.11,1.3-.38,1.89c-.78,1.67-2.11,3.09-3.5,4.27-.67.56-1.38,1.07-2.16,1.48-.55.29-1.17.54-1.74.52-.18,0-.38-.08-.48-.17-.11-.1-.1-.09-.17-.22-.04-.07-.08-.2-.11-.33-.06-.3-.04-.7.01-1.04.04-.24.09-.48.15-.72.09-.36.28-.61.47-.92.81-1.3,1.41-2.73,2.26-4.01.77-1.16,1.82-2.08,3.27-2.13.43-.02.86.04,1.29.12.4.08.57-.53.17-.61Z"/>
        <path class="cls-20" d="M418.21,136.44c-1.46.35-2.26-.87-2.79-2.05-.31-.68-.54-1.4-.78-2.11-.17-.49-.31-1.25-.67-1.63-.63-.67-1.78-.32-2.49,0-1.21.56-2.27,1.43-3.31,2.25-.98.77-1.98,1.68-3.12,2.21-.46.21-2.61.97-2.02-.23.47-.96,1.59-1.75,2.6-2.02,1.2-.32,2.19-.88,3.19-1.62,1.27-.94,2.44-2.02,3.75-2.9.92-.61,2.25-1.42,3.19-.42l-.05-.39c-.06.12-.06.22-.09.33-.02.05-.04.09-.05.16-.07.33-.09.64-.05,1,.08.83.32,1.63.62,2.41.67,1.74,1.67,3.42,1.86,5.31.04.4.68.41.64,0-.31-2.98-2.63-5.49-2.49-8.53l-.16.27c.34-.2.15-.36.29-.63.06-.13.05-.28-.05-.39-1.89-2-4.88.97-6.33,2.15-1.14.92-2.36,2.01-3.78,2.47-.58.19-1.14.29-1.68.6s-1.03.71-1.44,1.17c-.44.51-1.13,1.56-.36,2.11.87.62,2.48-.12,3.27-.59,1.27-.76,2.39-1.78,3.57-2.67.92-.7,2.3-1.91,3.55-1.8.78.07.9,1.14,1.11,1.75.28.8.55,1.62.93,2.38.67,1.35,1.75,2.38,3.34,2,.4-.09.23-.71-.17-.61Z"/>
      </g>
    </g>
    <g>
      <path class="cls-20" d="M423.04,133.42c3.5-7.89,7.32-5.42,2.38,1.52,1.95.03,9.44-1.59,8.11.79-7.44-.63-11.2,1.66-13.73,8.19-1.32,1.1-5.6,10.82-1.84,8.38,14.81-11.44,20.67-14.68,2.41.33-12.48,8.35-.64-11.18,1.34-16.04-2.07.31-4.52,1.11-6.65,1.49-1.79,2.32-3.6,2.15-2.7-.84,2.99-2.69,9.72,0,10.68-3.81Z"/>
      <path class="cls-20" d="M423.32,133.58c.6-1.33,1.29-2.69,2.28-3.78.28-.3,1.13-1.25,1.64-.91s.13,1.55,0,1.99c-.43,1.41-1.25,2.69-2.08,3.89-.14.2.05.48.27.48,1.59,0,3.17-.33,4.75-.45.8-.06,1.66-.14,2.45,0,.2.04.64.09.72.32.17.47-.78.21-1.04.2-3.97-.17-7.85.74-10.39,4-.6.77-1.11,1.62-1.55,2.49-.37.75-.62,1.55-1.12,2.22-.82,1.11-1.42,2.39-1.95,3.65-.32.75-2.47,6.08.16,5.21.96-.32,1.8-1.22,2.59-1.82.98-.75,1.97-1.5,2.95-2.24,1.61-1.21,3.23-2.41,4.88-3.57,1.01-.71,2.01-1.43,3.07-2.06.11-.06.69-.28.73-.38-.01.03-.24-.33-.25-.33-.03,0-.16.23-.19.25-.89.72-1.67,1.64-2.54,2.41-1.78,1.58-3.6,3.11-5.42,4.63-.55.46-7.38,6.56-8.18,3.96-.29-.95.18-2.2.46-3.1.48-1.5,1.12-2.96,1.78-4.39,1.29-2.8,2.76-5.52,4.09-8.31.2-.43.4-.86.58-1.29.1-.25-.18-.42-.39-.39-1.36.22-2.69.56-4.02.9-.65.16-1.29.32-1.95.46-.76.16-.75.18-1.25.72-.31.33-.97,1.06-1.49.99-.64-.08-.53-1.08-.38-1.52.32-.98,1.62-1.27,2.53-1.45,2.57-.5,7.33.45,8.28-2.87.11-.39-.5-.56-.61-.17-.64,2.21-3.51,2.05-5.36,2.16-1.02.06-2.06.13-3.05.4-.69.18-1.84.53-2.25,1.18-.75,1.19-.22,3.52,1.5,2.73.4-.18.75-.47,1.06-.77.4-.39.63-.62,1.18-.78.34-.1.71-.16,1.05-.24,1.64-.39,3.25-.85,4.91-1.11l-.39-.39c-2.06,5.01-5.32,9.57-6.7,14.86-.32,1.22-.73,3.56,1.16,3.63,1.12.04,2.29-.64,3.21-1.18,2.14-1.23,3.97-2.97,5.85-4.56,1.58-1.33,3.15-2.66,4.68-4.04.73-.66,1.54-1.32,2.16-2.09.22-.27.54-.74.04-.93-.38-.14-1.04.38-1.33.56-2.63,1.61-5.1,3.52-7.56,5.36-.86.64-1.71,1.28-2.56,1.93-.9.68-1.82,1.62-2.83,2.12-1.31.65-.59-1.53-.41-2.15.49-1.65,1.21-3.27,2.08-4.75.26-.44.62-.8.88-1.22.61-.97.92-2.17,1.53-3.17,1.14-1.86,2.72-3.39,4.78-4.18,2.27-.87,4.76-.88,7.15-.69.1,0,.23-.07.27-.16,1.51-2.96-7.23-1.26-8.39-1.27l.27.48c.99-1.41,2-3,2.32-4.72.12-.65.2-1.62-.46-2.03-.62-.38-1.37.08-1.85.47-1.36,1.12-2.22,2.87-2.94,4.44-.17.37.38.69.55.32Z"/>
    </g>
    <g>
      <path class="cls-20" d="M431.15,147.34c2.93-2.03,9.02-9.14,12.34-5.47-.52,7.04-2.46-.71-5.1,2.15-3.93.14-16.78,18.37-10.36,5.13,1.4-2.96,3.28-6.41,3.27-9.59,6.23-2.02-.87,7.03-.15,7.79Z"/>
      <path class="cls-20" d="M431.31,147.61c1.83-1.29,3.4-2.93,5.19-4.27,1.54-1.16,4.09-3.01,6.08-1.82.17.1.49.27.58.46.1.23-.07.89-.11,1.15-.05.36-.09,1.07-.37,1.34-.31.31-.76-.21-1.03-.44-.47-.38-.96-.79-1.56-.94-.75-.19-1.2.17-1.79.55-.08.05.02.02-.18.08-.1.03-.2.04-.3.07-.25.07-.49.19-.72.31-.56.29-1.07.67-1.56,1.06-1.31,1.03-2.51,2.21-3.69,3.4s-2.26,2.33-3.42,3.47c-.42.41-.84.82-1.3,1.19-.21.17-.6.36-.7.43.2-.13.03.26.14-.08.07-.22.1-.46.17-.68.32-.99.77-1.94,1.21-2.88,1.55-3.29,3.6-6.71,3.65-10.45l-.23.31c.63-.2,2.1-.7,2.18.37.06.94-.52,2-.91,2.81-.47.97-1,1.9-1.45,2.88-.21.45-.64,1.18-.27,1.64.25.32.7-.13.45-.45.09.12.04-.07.09-.2.07-.17.12-.34.2-.51.2-.46.44-.91.67-1.35.55-1.06,1.12-2.11,1.52-3.23.25-.7.59-1.73.09-2.4-.61-.82-1.94-.43-2.73-.18-.14.04-.23.16-.23.31-.05,3.8-2.24,7.26-3.79,10.62-.38.83-.77,1.68-1.05,2.55-.11.34-.29.84-.16,1.2.33.88,1.42-.08,1.79-.4,1.2-1.02,2.27-2.19,3.37-3.31,1.29-1.31,2.57-2.63,3.96-3.84.59-.52,1.2-1.02,1.86-1.44.48-.3.92-.42,1.43-.6.36-.13.57-.49.95-.61.36-.11.7-.02,1.02.15.57.3.99.81,1.54,1.14.45.27.93.31,1.27-.13.23-.3.33-.72.41-1.08.11-.51.39-1.53.23-2.02-.14-.43-.82-.8-1.21-.98-.47-.21-.98-.3-1.49-.29-1.28.04-2.5.66-3.56,1.33-2.38,1.5-4.27,3.61-6.55,5.22-.33.23-.01.79.32.55Z"/>
    </g>
    <g>
      <path class="cls-20" d="M440.33,150.66c-.53-5.19,10.63-15.92,11.07-7.09-2.3,2.45-6,3.66-8.19,6.32-3.97,4.01,3.26,4.66,6.04,1.05,6.57-6.42-2.59,6.4-6.2,4.14-2.19.05-3.16-2.61-2.72-4.42ZM447.47,142.17c-1.73,1.23-3.77,3.74-4.32,5.57,1.42-.56,10.75-7.18,4.32-5.57Z"/>
      <g>
        <path class="cls-20" d="M440.65,150.66c-.17-1.91.96-3.83,2.02-5.32,1.21-1.69,2.77-3.33,4.63-4.3.63-.33,1.39-.62,2.12-.49s1.15.71,1.37,1.37c.08.22.13.45.17.68.04.22.17.66.09.86-.1.27-.59.57-.81.76-.35.3-.72.57-1.1.83-1.41.99-2.93,1.81-4.3,2.86-.64.49-1.23,1.03-1.76,1.63-.41.45-.84.9-1.11,1.45-.34.69-.37,1.49.24,2.03s1.58.64,2.37.6c1.1-.06,2.18-.4,3.13-.95,1.04-.6,1.76-1.54,2.64-2.34.27-.24.54-.49.83-.7.08-.06.18-.1.26-.17.1-.08.06.02.01-.03,0,0-.24-.24-.22-.23-.02,0,.03-.02,0,0-.02,0-.04.1-.07.16-.11.21-.25.41-.39.6-.43.6-.93,1.16-1.44,1.69-1.16,1.21-2.51,2.46-4.08,3.1-.58.24-1.26.4-1.86.15-.51-.22-1.07-.16-1.56-.49-.57-.39-.92-1.03-1.11-1.68s-.22-1.33-.08-1.99c.09-.4-.52-.57-.61-.17-.29,1.3-.01,2.79.86,3.82.41.49.97.84,1.6.96.23.04.42.05.63.12.16.06.31.12.48.16,1.63.31,3.31-.96,4.49-1.93,1.28-1.05,2.52-2.3,3.44-3.69.18-.27.56-.8.25-1.1-.35-.35-.91.17-1.18.38-.37.3-.73.62-1.07.95-.47.44-.86.96-1.37,1.37-.99.8-2.29,1.3-3.56,1.37-.67.04-1.95,0-2.19-.81-.13-.45.15-.93.39-1.28.47-.69,1.11-1.33,1.73-1.88,1.4-1.24,3.06-2.13,4.61-3.17.71-.48,1.4-.99,2.03-1.57.27-.25.56-.44.56-.83,0-.3-.05-.62-.11-.91-.15-.84-.47-1.74-1.2-2.25-.62-.43-1.38-.46-2.1-.3-1.99.46-3.73,2.1-5.03,3.58-1.43,1.63-2.81,3.64-3.19,5.82-.07.42-.11.85-.07,1.28.04.4.67.41.64,0Z"/>
        <path class="cls-20" d="M447.31,141.9c-1.02.74-1.92,1.65-2.69,2.65-.73.94-1.42,1.97-1.77,3.12-.07.21.16.48.39.39.6-.24,1.15-.62,1.69-.98.84-.55,1.65-1.14,2.43-1.76.71-.56,1.41-1.14,2.01-1.81.32-.36.89-1.01.57-1.53-.18-.29-.55-.35-.86-.36-.56-.01-1.14.13-1.68.26-.4.1-.23.71.17.61.45-.11.9-.22,1.37-.24.07,0,.15,0,.22,0,.03,0,.06,0,.1,0,0,0-.03,0,.04,0,.03,0,.16.03.07.02.01,0,.05.02.06.03-.04-.06-.02-.03,0,0-.02-.04,0,.02-.02-.04.02.05,0,.02,0-.02,0,.02,0,.05,0,.06-.02.04.02-.08,0,0,0,.02-.01.04-.02.06-.03.11,0,.01-.04.09-.15.27-.27.42-.48.65-1.17,1.29-2.66,2.34-4.1,3.3-.34.23-.69.45-1.04.67-.14.08-.27.16-.41.24-.05.03-.11.06-.16.08-.02.01-.05.02-.07.03-.06.04,0,0,0,0l.39.39c.33-1.06.98-2.04,1.67-2.91.73-.92,1.56-1.79,2.51-2.48.33-.24.01-.79-.32-.55Z"/>
      </g>
    </g>
  </g>
</svg>