<?xml version="1.0"?>
<svg width="170" height="66" xmlns="http://www.w3.org/2000/svg" xmlns:svg="http://www.w3.org/2000/svg" enable-background="new 0 0 170 66" version="1.1" xml:space="preserve">
 <style type="text/css">.st0{fill:#FFFFFF;}
	.st1{fill:#CDCDCC;}
	.st2{fill:#9A9A99;}
	.st3{fill:#027D41;}
	.st4{fill:#035E30;}
	.st5{fill-rule:evenodd;clip-rule:evenodd;fill:#FFFFFF;}
	.st6{opacity:0.3;}
	.st7{clip-path:url(#XMLID_23_);fill:#035E30;}
	.st8{opacity:0.3;clip-path:url(#XMLID_27_);}
	.st9{fill-rule:evenodd;clip-rule:evenodd;fill:#008244;}
	.st10{fill:#008244;}
	.st11{fill-rule:evenodd;clip-rule:evenodd;fill:#035E30;}
	.st12{opacity:0.3;fill-rule:evenodd;clip-rule:evenodd;}
	.st13{fill:#C71436;}
	.st14{fill:#C4067B;}
	.st15{fill:#DB087F;}</style>
 <g class="layer">
  <title>Layer 1</title>
  <g id="XMLID_927_">
   <path class="st9" d="m53.6,40.69l8,0c8.2,0 13.9,-6.32 13.9,-14.35c0,-8.33 -5.5,-14.56 -13.9,-14.56l-8,0l0,28.91l0,0zm5.6,-23.99l0.9,0c6.4,0 9.6,3.21 9.6,9.54c0,5.72 -2.7,9.54 -9.6,9.54l-0.9,0l0,-19.07l0,0z" id="XMLID_937_"/>
   <polygon class="st10" id="XMLID_90_" points="93.9000015258789,16.697851181030273 93.9000015258789,11.779056549072266 79.0999984741211,11.779056549072266 79.0999984741211,40.68952560424805 93.9000015258789,40.68952560424805 93.9000015258789,35.77073287963867 84.69999694824219,35.77073287963867 84.69999694824219,27.940813064575195 93.5999984741211,27.940813064575195 93.5999984741211,23.022018432617188 84.69999694824219,23.022018432617188 84.69999694824219,16.697851181030273 93.9000015258789,16.697851181030273 "/>
   <path class="st9" d="m143,40.69l10.8,-27.81c0.5,-1.2 1.5,-1.81 2.6,-1.81c1.1,0 2.2,0.6 2.6,1.81l10.4,27.81l-6,0l-2.2,-6.12l-10,0l-2.4,6.12l-5.8,0l0,0zm9.9,-10.74l3.5,-10.44l0.1,0l3.3,10.44l-6.9,0l0,0z" id="XMLID_933_"/>
   <polygon class="st10" id="XMLID_87_" points="104.5,24.025854110717773 104.4000015258789,24.025854110717773 104.4000015258789,11.779056549072266 98.80000305175781,11.779056549072266 98.80000305175781,40.68952560424805 104.4000015258789,40.68952560424805 104.4000015258789,27.74004554748535 104.5,27.74004554748535 113.69999694824219,40.68952560424805 120.9000015258789,40.68952560424805 109.4000015258789,25.13007164001465 120.30000305175781,11.779056549072266 113.4000015258789,11.779056549072266 104.5,24.025854110717773 "/>
   <path class="st10" d="m132.2,16.4l-3,0l0,8.73l3,0c2.2,0 4,-1.91 4,-4.32c0,-2.51 -1.8,-4.42 -4,-4.42l0,0zm2.9,12.45l7.9,11.85l-6.8,0l-7.1,-11.64l0,11.64l-5.6,0l0,-28.91l9.6,0c4.8,0 8.6,3.91 8.6,8.63c0.1,4.12 -2.7,7.53 -6.6,8.43l0,0z" id="XMLID_929_"/>
   <path class="st10" d="m9.5,4.45l24.3,14.15c1.9,1.1 3.7,3.41 3.7,6.52c0,3.11 -1.9,5.42 -3.7,6.52l-33.3,19.27l0,-8.73l29.6,-17.17l-15.9,-9.24l0,13.05l-7.5,4.32l0,-27.2c0,-0.7 0.3,-1.3 0.9,-1.61c0.6,-0.2 1.3,-0.3 1.9,0.1l0,0z" id="XMLID_84_"/>
  </g>
 </g>
</svg>