<svg xmlns="http://www.w3.org/2000/svg" width="134" height="74" viewBox="0 0 134 74">
    <g fill="none" fill-rule="evenodd">
        <g>
            <g>
                <path fill="#263E83" d="M50.993 1.277L50.993 1.277 91.249 71.453 131.792 1.277z" transform="translate(-184.000000, -35.000000) translate(184.000000, 35.000000)"/>
                <path fill="#FEFEFE" d="M48.799 0l42.445 74L134 0H48.799zm2.195 1.278h80.799L91.249 71.453 50.994 1.278z" transform="translate(-184.000000, -35.000000) translate(184.000000, 35.000000)"/>
                <path fill="#FEFEFE" d="M109.356 17.323h4.512c-.43-.167-.767-.864-.767-.864s-4.593-10.484-4.692-10.72c-.097-.253-.459-1.043-.459-1.23 0-.196.243-.797.243-.797h-5.965c.13.673.146.954.05 1.16-.077.203-5.099 11.398-5.243 11.746-.153.354-.555.63-.555.63h4.628c-.604-.41-.396-.984-.288-1.23.116-.252.755-1.3.755-1.3h7.129s.399.906.707 1.654c.31.736-.055.95-.055.95zm-6.695-4.76l2.501-6.093 2.39 6.093h-4.89zM110.802 3.771h14.111l.305 2.723s-1.077-.287-1.424-.287h-4.438l.025 10.447c0 .306.189.628.335.65h-3.848s.321-.426.321-.791V6.183h-4.82l-1.131.3.564-2.712zM94.563 13.258l1.745 2.935s-.608-.09-.902.015c-.293.105-2.988 1.363-6.33 1.363-3.33 0-9.072-2.107-9.072-7.376 0-5.266 6.114-6.877 9.036-6.877 2.912 0 5.193.895 5.93 1.146.74.24 1.338.36 1.338.36l-1.77 2.724s-.67-.57-1.32-.876c-.662-.312-2.413-.706-4.178-.706-1.776 0-5.827 1.08-5.827 4.158 0 3.073 3.52 4.653 5.827 4.653 2.304 0 4.466-.579 4.857-.87.395-.273.666-.65.666-.65M79.07 3.612h-3.94s.309.291.309 1.066V15.95s.034.76-.61 1.185h4.394s-.649-.426-.649-1.307V4.518c0-.18-.017-.483.496-.906M55.842 3.554l7.345 12.539s.327.687.32.948h3.382s.016-.49.177-.816C67.22 15.908 74.389 3.6 74.389 3.6h-4.833s.467.481-.023 1.346c-.494.861-4.483 7.51-4.483 7.51s-4.319-7.366-4.519-7.722c-.203-.348-.145-.777.055-1.16l-4.744-.02zM91.249 65.326L64.67 18.992 118.023 18.992z" transform="translate(-184.000000, -35.000000) translate(184.000000, 35.000000)"/>
                <path fill="#263E83" d="M4.481 31.833c1.274 0 2.22-.285 2.84-.855.618-.57.928-1.36.928-2.368 0-.948-.256-1.7-.768-2.259-.512-.558-1.256-.837-2.232-.837H2.035v6.193c.833.084 1.649.126 2.446.126zm.59-6.68c.928 0 1.606-.296 2.035-.89.428-.594.643-1.311.643-2.151 0-1.873-1.107-2.809-3.321-2.809-.821 0-1.619.03-2.393.09v5.76h3.036zm-4.714 7.04v-.036c.286-.396.476-.735.571-1.017.096-.282.143-.675.143-1.18v-8.713c0-.504-.047-.897-.143-1.179-.095-.282-.285-.62-.57-1.017v-.036c1.13 0 2.04-.012 2.73-.036.69-.024 1.155-.036 1.393-.036 2.833 0 4.25 1.014 4.25 3.043 0 .792-.203 1.479-.607 2.06-.405.583-.989.982-1.75 1.198 1 .108 1.74.468 2.223 1.08.482.612.723 1.35.723 2.214 0 1.129-.399 2.02-1.196 2.674-.798.654-1.994.98-3.589.98H.357zM13.748 31.815c.975 0 1.773-.312 2.392-.936v-3.187c-.702.084-1.339.225-1.91.423-.572.198-1.063.495-1.473.891-.411.396-.616.853-.616 1.369 0 .444.134.795.401 1.053.268.258.67.387 1.206.387zm.803-11.342l-2.303 1.999-.125-.108 2.392-3.115h.072l2.464 3.115-.125.108-2.375-1.999zm2.732 11.936c-.37 0-.65-.111-.84-.333-.19-.222-.291-.52-.303-.891-.798.852-1.738 1.278-2.82 1.278-.644 0-1.152-.162-1.527-.486-.375-.324-.563-.774-.563-1.35 0-.505.158-.957.473-1.36.316-.402.726-.726 1.232-.972s1.027-.444 1.562-.594c.536-.15 1.083-.249 1.643-.297v-1.656c0-1.224-.673-1.836-2.017-1.836-.905 0-1.738.264-2.5.792l-.09-.126c.798-.804 1.834-1.206 3.108-1.206.904 0 1.529.198 1.874.594.345.396.518.93.518 1.602v5.437c0 .516.232.774.696.774.286 0 .571-.144.857-.432l.054.036c-.262.684-.715 1.026-1.357 1.026zM22.478 32.463c-.5 0-.922-.153-1.267-.46-.346-.305-.518-.812-.518-1.52v-6.517h-.964v-.036l1.82-1.602h.036v1.314h2.643v.324h-2.643v6.553c0 .924.435 1.386 1.304 1.386.535 0 1.035-.126 1.5-.378l.035.072c-.571.576-1.22.864-1.946.864M27.673 19.807c.143.144.215.318.215.522 0 .205-.072.378-.215.522-.142.144-.315.216-.517.216-.203 0-.375-.072-.518-.216-.143-.144-.214-.317-.214-.522 0-.204.071-.378.214-.522.143-.144.315-.216.518-.216.202 0 .375.072.517.216zm-1.303 12.35c.262-.492.393-1.194.393-2.106v-4.465c0-.54-.262-.984-.786-1.332v-.036l1.678-.936v6.75c0 .553.021.973.063 1.26.042.289.152.577.33.865v.036H26.37v-.036zM30.423 32.157c.261-.492.393-1.194.393-2.106v-4.447c0-.552-.262-1.002-.786-1.35v-.036l1.607-.936v2.178l.089.018c.107-.108.31-.33.607-.666s.53-.582.697-.738c.166-.156.398-.312.696-.468.297-.156.595-.234.893-.234v1.44h-.036c-.298-.18-.732-.27-1.304-.27-.274 0-.797.45-1.57 1.35v4.14c0 .553.02.973.062 1.26.041.289.152.577.33.865v.036h-1.678v-.036zM.393 52.765c.262-.492.393-1.194.393-2.107v-9.973c0-.468-.262-.84-.786-1.116v-.036l1.678-.756V50.64c0 .54.024.958.072 1.251.047.295.154.586.321.874v.036H.393v-.036zM7.945 44.304c-.75 0-1.375.249-1.875.747s-.827 1.203-.981 2.115l4.945-.108v-.108c0-1.764-.696-2.646-2.089-2.646zm3.267 6.498c-.226.697-.636 1.249-1.231 1.656-.596.408-1.304.613-2.125.613-1.155 0-2.083-.405-2.785-1.216-.703-.81-1.054-1.875-1.054-3.195 0-1.38.387-2.505 1.16-3.375.774-.87 1.715-1.306 2.822-1.306.987 0 1.779.346 2.374 1.036.595.69.857 1.497.786 2.421H5.053c-.036.252-.054.528-.054.828 0 1.2.274 2.163.821 2.89.548.726 1.333 1.089 2.357 1.089.595 0 1.16-.123 1.696-.37.536-.245.953-.614 1.25-1.107l.09.036zM16.64 46.122c-.346-.948-.697-1.56-1.054-1.836v-.036h2.09v.036c-.405.372-.435.996-.09 1.872l1.982 5.274 1.91-5.13c.381-1.02.31-1.693-.214-2.016v-.036h1.768v.036c-.274.216-.489.444-.643.684-.155.24-.322.636-.5 1.188l-2.553 6.733h-.107l-2.59-6.77zM25.745 40.415c.143.144.214.318.214.522 0 .204-.071.378-.214.522-.143.144-.315.216-.518.216-.202 0-.374-.072-.517-.216-.143-.144-.215-.318-.215-.522 0-.204.072-.378.215-.522.143-.144.315-.216.517-.216.203 0 .375.072.518.216zm-1.303 12.35c.262-.492.393-1.195.393-2.107v-4.464c0-.54-.262-.984-.786-1.332v-.036l1.678-.936v6.75c0 .552.021.972.063 1.26.041.289.152.576.33.865v.036h-1.678v-.036zM28.584 46.122c-.346-.948-.697-1.56-1.054-1.836v-.036h2.09v.036c-.405.372-.435.996-.09 1.872l1.982 5.274 1.91-5.13c.381-1.02.31-1.693-.214-2.016v-.036h1.768v.036c-.274.216-.489.444-.643.684-.155.24-.322.636-.5 1.188L31.28 52.89h-.107l-2.59-6.77zM36.564 52.765c.262-.492.393-1.194.393-2.107v-4.446c0-.552-.262-1.002-.786-1.35v-.036l1.607-.936v2.178l.09.018c.107-.108.309-.33.607-.666.297-.336.53-.582.696-.738.166-.156.399-.312.696-.468.298-.156.595-.235.893-.235v1.44h-.036c-.297-.18-.732-.27-1.303-.27-.274 0-.798.45-1.571 1.35v4.141c0 .552.02.972.062 1.26.042.289.152.577.33.865v.036h-1.678v-.036zM46.116 44.304c-.75 0-1.375.249-1.875.747s-.827 1.203-.982 2.115l4.946-.108v-.108c0-1.764-.696-2.646-2.089-2.646zm3.267 6.498c-.226.697-.636 1.249-1.231 1.656-.596.408-1.304.613-2.125.613-1.155 0-2.083-.405-2.785-1.216-.703-.81-1.054-1.875-1.054-3.195 0-1.38.387-2.505 1.16-3.375.774-.87 1.715-1.306 2.822-1.306.987 0 1.779.346 2.374 1.036.595.69.857 1.497.786 2.421h-6.106c-.036.252-.054.528-.054.828 0 1.2.274 2.163.821 2.89.548.726 1.333 1.089 2.357 1.089.595 0 1.16-.123 1.696-.37.536-.245.953-.614 1.25-1.107l.09.036zM4.07 64.86c-.749 0-1.374.25-1.874.747-.5.498-.827 1.203-.982 2.115l4.946-.108v-.108c0-1.764-.697-2.646-2.09-2.646zm3.268 6.499c-.226.696-.637 1.248-1.232 1.656-.595.408-1.303.612-2.124.612-1.155 0-2.084-.405-2.786-1.215S.143 70.537.143 69.216c0-1.38.386-2.505 1.16-3.375.774-.87 1.714-1.305 2.821-1.305.988 0 1.78.345 2.375 1.035s.857 1.497.786 2.421H1.178c-.035.252-.053.528-.053.828 0 1.2.274 2.164.821 2.89.548.726 1.333 1.089 2.357 1.089.595 0 1.16-.123 1.696-.37.535-.245.952-.614 1.25-1.107l.09.037zM11.14 73.357H9.463v-.036c.262-.492.393-1.194.393-2.107v-4.446c0-.552-.261-1.002-.785-1.35v-.036l1.607-.936v1.638l.071.018c.88-1.044 1.952-1.566 3.214-1.566.821 0 1.443.23 1.865.693.423.462.634 1.107.634 1.935v4.032c0 .565.021.99.063 1.279.041.288.152.57.33.846v.036h-1.678v-.036c.261-.492.393-1.194.393-2.107v-3.852c0-1.416-.667-2.124-2-2.124-1.167 0-2.107.396-2.821 1.188v4.77c0 .553.02.973.062 1.26.042.289.152.577.33.865v.036zM23.943 66.462l-.143.036c-.31-.612-.646-1.038-1.01-1.278-.362-.24-.782-.36-1.258-.36-.571 0-1.032.144-1.384.432-.35.288-.526.672-.526 1.152 0 .276.05.513.152.711.1.198.282.378.544.54.262.162.48.282.652.36.172.078.479.201.92.37.38.155.69.293.928.413.238.12.496.288.776.504.28.216.488.474.625.774.137.3.206.649.206 1.044 0 .769-.268 1.372-.804 1.81-.536.438-1.315.657-2.339.657-.857 0-1.643-.174-2.356-.522l-.179-1.836.143-.037c.297.72.654 1.246 1.071 1.576.417.33.94.495 1.571.495.69 0 1.223-.174 1.598-.522.375-.348.563-.786.563-1.315 0-.54-.194-.96-.58-1.26-.388-.3-.944-.582-1.67-.846-.37-.131-.676-.258-.92-.378s-.506-.279-.785-.477c-.28-.198-.491-.44-.634-.729-.143-.288-.214-.618-.214-.99 0-.78.285-1.35.857-1.71.571-.36 1.267-.54 2.089-.54.761 0 1.404.108 1.928.324l.179 1.602zM30.138 64.86c-.75 0-1.375.25-1.875.747-.5.498-.827 1.203-.982 2.115l4.946-.108v-.108c0-1.764-.697-2.646-2.09-2.646zm3.267 6.499c-.226.696-.637 1.248-1.232 1.656-.595.408-1.304.612-2.125.612-1.154 0-2.083-.405-2.785-1.215s-1.053-1.875-1.053-3.196c0-1.38.386-2.505 1.16-3.375.774-.87 1.714-1.305 2.821-1.305.988 0 1.78.345 2.375 1.035s.857 1.497.785 2.421h-6.106c-.035.252-.053.528-.053.828 0 1.2.273 2.164.82 2.89.548.726 1.334 1.089 2.358 1.089.595 0 1.16-.123 1.696-.37.535-.245.952-.614 1.25-1.107l.089.037zM37.225 73.357H35.53v-.036c.274-.48.411-1.17.411-2.07v-4.447c0-.576-.268-1.044-.803-1.404v-.036l1.624-.954v1.674l.072.018c.714-1.044 1.672-1.566 2.874-1.566 1.095 0 1.756.528 1.982 1.584l.054.018c.75-1.068 1.714-1.602 2.892-1.602.726 0 1.244.207 1.553.62.31.415.464 1.024.464 1.828v4.248c0 .54.024.955.072 1.243.047.288.154.57.321.846v.036h-1.678v-.036c.262-.456.393-1.146.393-2.07v-4.087c0-.612-.114-1.086-.34-1.422-.226-.336-.642-.504-1.25-.504-.88 0-1.69.408-2.427 1.224v4.77c0 .54.023.955.071 1.243.047.288.16.57.34.846v.036h-1.697v-.036c.262-.456.393-1.146.393-2.07v-4.087c0-.612-.113-1.086-.34-1.422-.226-.336-.648-.504-1.267-.504-.893 0-1.696.396-2.41 1.188v4.806c0 .96.13 1.657.392 2.089v.036zM53.08 73.303c.892 0 1.63-.39 2.214-1.17.583-.78.874-1.819.874-3.115 0-1.212-.3-2.16-.901-2.844-.602-.684-1.372-1.026-2.312-1.026-.512.012-1 .144-1.464.396-.465.252-.81.552-1.036.9v3.87c0 .985.25 1.729.75 2.233s1.125.756 1.875.756m-.215.324c-1.166 0-2.065-.354-2.695-1.062l-.429.792h-.179V61.24c0-.468-.261-.84-.785-1.116v-.036l1.678-.756v6.733h.054c.618-1.02 1.595-1.53 2.928-1.53 1.107 0 2.011.393 2.714 1.179.702.786 1.053 1.827 1.053 3.123 0 1.32-.378 2.448-1.134 3.385-.756.936-1.824 1.404-3.205 1.404M59.15 73.32c.262-.491.393-1.193.393-2.106v-9.973c0-.468-.262-.84-.786-1.116v-.036l1.679-.756v11.863c0 .54.023.958.071 1.252.047.294.155.585.321.873v.036H59.15v-.036zM66.702 64.86c-.75 0-1.374.25-1.874.747-.5.498-.828 1.203-.982 2.115l4.945-.108v-.108c0-1.764-.696-2.646-2.089-2.646zm3.268 6.499c-.226.696-.637 1.248-1.232 1.656-.596.408-1.304.612-2.125.612-1.155 0-2.083-.405-2.785-1.215-.703-.81-1.053-1.875-1.053-3.196 0-1.38.386-2.505 1.16-3.375.774-.87 1.714-1.305 2.821-1.305.988 0 1.78.345 2.374 1.035.596.69.858 1.497.786 2.421H63.81c-.036.252-.053.528-.053.828 0 1.2.273 2.164.82 2.89.548.726 1.334 1.089 2.357 1.089.596 0 1.161-.123 1.696-.37.536-.245.953-.614 1.25-1.107l.09.037z" transform="translate(-184.000000, -35.000000) translate(184.000000, 35.000000)"/>
            </g>
        </g>
    </g>
</svg>
